<?xml version="1.0" standalone="no"?>
 <!DOCTYPE svg PUBLIC "-//W3C//DTD SVG 1.1//EN" 
 "http://www.w3.org/Graphics/SVG/1.1/DTD/svg11.dtd"> 
<svg xmlns="http://www.w3.org/2000/svg" version="1.1" 
    width="3.00736cm" height="5.07238cm" viewBox="0 0 11840 19970 ">
<title>SVG Picture created as HallStepMicro-B_SilkS.svg date 2013/10/04 10:50:10 </title>
  <desc>Picture generated by PCBNEW </desc>
<g style="fill:#000000; fill-opacity:1;stroke:#000000; stroke-opacity:1;
stroke-linecap:round; stroke-linejoin:round; "
 transform="translate(0 0) scale(1 1)">
</g>
<g style="fill:#A000A0; fill-opacity:0.0; 
stroke:#A000A0; stroke-width:78.7402; stroke-opacity:1; 
stroke-linecap:round; stroke-linejoin:round;">
<path d="M1725 10000
L8225 10000
" />
<circle cx="4975" cy="5000" r="4800" /> 
<path d="M1475 1500
L8475 8500
" />
<path d="M8475 1500
L1475 8500
" />
<circle cx="4975" cy="5000" r="4000" /> 
<circle cx="4975" cy="5000" r="500" /> 
<circle cx="4975" cy="5000" r="2500" /> 
</g>
<g style="fill:#A000A0; fill-opacity:0.0; 
stroke:#A000A0; stroke-width:98.4252; stroke-opacity:1; 
stroke-linecap:round; stroke-linejoin:round;">
<path d="M8884 2703
L8490 2703
" />
<path d="M8678 2703
L8678 2928
" />
<path d="M8884 2928
L8490 2928
" />
<path d="M8884 3284
L8678 3284
L8640 3265
L8621 3228
L8621 3153
L8640 3115
" />
<path d="M8865 3284
L8884 3247
L8884 3153
L8865 3115
L8828 3097
L8790 3097
L8753 3115
L8734 3153
L8734 3247
L8715 3284
" />
<path d="M8884 3528
L8865 3490
L8828 3472
L8490 3472
" />
<path d="M8884 3734
L8865 3697
L8828 3678
L8490 3678
" />
<path d="M8865 3865
L8884 3922
L8884 4015
L8865 4053
L8846 4071
L8809 4090
L8771 4090
L8734 4071
L8715 4053
L8696 4015
L8678 3940
L8659 3903
L8640 3884
L8603 3865
L8565 3865
L8528 3884
L8509 3903
L8490 3940
L8490 4034
L8509 4090
" />
<path d="M8621 4203
L8621 4353
" />
<path d="M8490 4259
L8828 4259
L8865 4278
L8884 4315
L8884 4353
" />
<path d="M8865 4634
L8884 4596
L8884 4521
L8865 4484
L8828 4465
L8678 4465
L8640 4484
L8621 4521
L8621 4596
L8640 4634
L8678 4653
L8715 4653
L8753 4465
" />
<path d="M8621 4821
L9015 4821
" />
<path d="M8640 4821
L8621 4859
L8621 4934
L8640 4971
L8659 4990
L8696 5009
L8809 5009
L8846 4990
L8865 4971
L8884 4934
L8884 4859
L8865 4821
" />
<path d="M8865 5159
L8884 5215
L8884 5309
L8865 5346
L8846 5365
L8809 5384
L8771 5384
L8734 5365
L8715 5346
L8696 5309
L8678 5234
L8659 5196
L8640 5178
L8603 5159
L8565 5159
L8528 5178
L8509 5196
L8490 5234
L8490 5328
L8509 5384
" />
<path d="M8865 5703
L8884 5665
L8884 5590
L8865 5553
L8828 5534
L8678 5534
L8640 5553
L8621 5590
L8621 5665
L8640 5703
L8678 5721
L8715 5721
L8753 5534
" />
<path d="M8621 5890
L8884 5890
" />
<path d="M8659 5890
L8640 5909
L8621 5946
L8621 6003
L8640 6040
L8678 6059
L8884 6059
" />
<path d="M8865 6227
L8884 6265
L8884 6340
L8865 6377
L8828 6396
L8809 6396
L8771 6377
L8753 6340
L8753 6284
L8734 6246
L8696 6227
L8678 6227
L8640 6246
L8621 6284
L8621 6340
L8640 6377
" />
<path d="M8884 6621
L8865 6584
L8846 6565
L8809 6546
L8696 6546
L8659 6565
L8640 6584
L8621 6621
L8621 6677
L8640 6715
L8659 6734
L8696 6752
L8809 6752
L8846 6734
L8865 6715
L8884 6677
L8884 6621
" />
<path d="M8884 6921
L8621 6921
" />
<path d="M8696 6921
L8659 6940
L8640 6959
L8621 6996
L8621 7034
" />
<path d="M8865 7146
L8884 7184
L8884 7259
L8865 7296
L8828 7315
L8809 7315
L8771 7296
L8753 7259
L8753 7202
L8734 7165
L8696 7146
L8678 7146
L8640 7165
L8621 7202
L8621 7259
L8640 7296
" />
</g>
<g style="fill:#A000A0; fill-opacity:0.0; 
stroke:#A000A0; stroke-width:80; stroke-opacity:1; 
stroke-linecap:round; stroke-linejoin:round;">
<path d="M9348 12992
L9367 12973
L9386 12916
L9386 12878
L9367 12821
L9329 12783
L9291 12764
L9215 12745
L9158 12745
L9082 12764
L9044 12783
L9005 12821
L8986 12878
L8986 12916
L9005 12973
L9025 12992
" />
<path d="M9386 13221
L9367 13183
L9329 13164
L8986 13164
" />
<path d="M9386 13430
L9367 13392
L9348 13373
L9310 13354
L9196 13354
L9158 13373
L9139 13392
L9120 13430
L9120 13488
L9139 13526
L9158 13545
L9196 13564
L9310 13564
L9348 13545
L9367 13526
L9386 13488
L9386 13430
" />
<path d="M9120 13678
L9120 13830
" />
<path d="M8986 13735
L9329 13735
L9367 13754
L9386 13792
L9386 13830
" />
<path d="M9386 13964
L8986 13964
" />
<path d="M9386 14135
L9177 14135
L9139 14116
L9120 14078
L9120 14021
L9139 13983
L9158 13964
" />
<path d="M9177 14459
L9196 14516
L9215 14535
L9253 14554
L9310 14554
L9348 14535
L9367 14516
L9386 14478
L9386 14326
L8986 14326
L8986 14459
L9005 14497
L9025 14516
L9063 14535
L9101 14535
L9139 14516
L9158 14497
L9177 14459
L9177 14326
" />
<path d="M9386 14783
L9367 14745
L9348 14726
L9310 14707
L9196 14707
L9158 14726
L9139 14745
L9120 14783
L9120 14840
L9139 14878
L9158 14897
L9196 14916
L9310 14916
L9348 14897
L9367 14878
L9386 14840
L9386 14783
" />
<path d="M9120 15030
L9120 15183
" />
<path d="M8986 15088
L9329 15088
L9367 15107
L9386 15145
L9386 15183
" />
<path d="M9386 15621
L8986 15621
L8986 15716
L9005 15773
L9044 15811
L9082 15830
L9158 15849
L9215 15849
L9291 15830
L9329 15811
L9367 15773
L9386 15716
L9386 15621
" />
<path d="M9367 16173
L9386 16135
L9386 16059
L9367 16021
L9329 16002
L9177 16002
L9139 16021
L9120 16059
L9120 16135
L9139 16173
L9177 16192
L9215 16192
L9253 16002
" />
<path d="M9367 16345
L9386 16383
L9386 16459
L9367 16497
L9329 16516
L9310 16516
L9272 16497
L9253 16459
L9253 16402
L9234 16364
L9196 16345
L9177 16345
L9139 16364
L9120 16402
L9120 16459
L9139 16497
" />
<path d="M9386 16688
L9120 16688
" />
<path d="M8986 16688
L9005 16669
L9025 16688
L9005 16707
L8986 16688
L9025 16688
" />
<path d="M9120 17049
L9444 17049
L9482 17030
L9501 17011
L9520 16973
L9520 16916
L9501 16878
" />
<path d="M9367 17049
L9386 17011
L9386 16935
L9367 16897
L9348 16878
L9310 16859
L9196 16859
L9158 16878
L9139 16897
L9120 16935
L9120 17011
L9139 17049
" />
<path d="M9120 17240
L9386 17240
" />
<path d="M9158 17240
L9139 17259
L9120 17297
L9120 17354
L9139 17392
L9177 17411
L9386 17411
" />
<path d="M9367 17583
L9386 17621
L9386 17697
L9367 17735
L9329 17754
L9310 17754
L9272 17735
L9253 17697
L9253 17640
L9234 17602
L9196 17583
L9177 17583
L9139 17602
L9120 17640
L9120 17697
L9139 17735
" />
</g> 
</svg>
