<?xml version="1.0" standalone="no"?>
 <!DOCTYPE svg PUBLIC "-//W3C//DTD SVG 1.1//EN" 
 "http://www.w3.org/Graphics/SVG/1.1/DTD/svg11.dtd"> 
<svg xmlns="http://www.w3.org/2000/svg" version="1.1" 
    width="3.00736cm" height="5.07238cm" viewBox="0 0 11840 19970 ">
<title>SVG Picture created as HallStepMicro-F_Mask.svg date 2013/10/04 10:50:10 </title>
  <desc>Picture generated by PCBNEW </desc>
<g style="fill:#000000; fill-opacity:1;stroke:#000000; stroke-opacity:1;
stroke-linecap:round; stroke-linejoin:round; "
 transform="translate(0 0) scale(1 1)">
</g>
<g style="fill:#A00000; fill-opacity:0.0; 
stroke:#A00000; stroke-width:39.3701; stroke-opacity:1; 
stroke-linecap:round; stroke-linejoin:round;">
</g>
<g style="fill:#A00000; fill-opacity:1.0; 
stroke:#A00000; stroke-width:39.3701; stroke-opacity:1; 
stroke-linecap:round; stroke-linejoin:round;">
<polyline style="fill-rule:evenodd;"
points="4280,15330
3869,15330
3869,15169
4280,15169
4280,15330
" /> 
<polyline style="fill-rule:evenodd;"
points="4280,14830
3869,14830
3869,14669
4280,14669
4280,14830
" /> 
<polyline style="fill-rule:evenodd;"
points="4280,14330
3869,14330
3869,14169
4280,14169
4280,14330
" /> 
<polyline style="fill-rule:evenodd;"
points="4280,13830
3869,13830
3869,13669
4280,13669
4280,13830
" /> 
<polyline style="fill-rule:evenodd;"
points="4280,13330
3869,13330
3869,13169
4280,13169
4280,13330
" /> 
<polyline style="fill-rule:evenodd;"
points="4280,12830
3869,12830
3869,12669
4280,12669
4280,12830
" /> 
<polyline style="fill-rule:evenodd;"
points="4280,12330
3869,12330
3869,12169
4280,12169
4280,12330
" /> 
<polyline style="fill-rule:evenodd;"
points="2180,12330
1769,12330
1769,12169
2180,12169
2180,12330
" /> 
<polyline style="fill-rule:evenodd;"
points="2180,12830
1769,12830
1769,12669
2180,12669
2180,12830
" /> 
<polyline style="fill-rule:evenodd;"
points="2180,13330
1769,13330
1769,13169
2180,13169
2180,13330
" /> 
<polyline style="fill-rule:evenodd;"
points="2180,13830
1769,13830
1769,13669
2180,13669
2180,13830
" /> 
<polyline style="fill-rule:evenodd;"
points="2180,14330
1769,14330
1769,14169
2180,14169
2180,14330
" /> 
<polyline style="fill-rule:evenodd;"
points="2180,14830
1769,14830
1769,14669
2180,14669
2180,14830
" /> 
<polyline style="fill-rule:evenodd;"
points="2180,15330
1769,15330
1769,15169
2180,15169
2180,15330
" /> 
<polyline style="fill-rule:evenodd;"
points="8230,12280
7719,12280
7719,11969
8230,11969
8230,12280
" /> 
<polyline style="fill-rule:evenodd;"
points="8230,11530
7719,11530
7719,11219
8230,11219
8230,11530
" /> 
<polyline style="fill-rule:evenodd;"
points="3980,3030
3469,3030
3469,2719
3980,2719
3980,3030
" /> 
<polyline style="fill-rule:evenodd;"
points="3980,2280
3469,2280
3469,1969
3980,1969
3980,2280
" /> 
<polyline style="fill-rule:evenodd;"
points="3005,5994
3005,6505
2694,6505
2694,5994
3005,5994
" /> 
<polyline style="fill-rule:evenodd;"
points="2255,5994
2255,6505
1944,6505
1944,5994
2255,5994
" /> 
<polyline style="fill-rule:evenodd;"
points="5969,6969
6480,6969
6480,7280
5969,7280
5969,6969
" /> 
<polyline style="fill-rule:evenodd;"
points="5969,7719
6480,7719
6480,8030
5969,8030
5969,7719
" /> 
<polyline style="fill-rule:evenodd;"
points="6944,4005
6944,3494
7255,3494
7255,4005
6944,4005
" /> 
<polyline style="fill-rule:evenodd;"
points="7694,4005
7694,3494
8005,3494
8005,4005
7694,4005
" /> 
<polyline style="fill-rule:evenodd;"
points="5969,1969
6480,1969
6480,2280
5969,2280
5969,1969
" /> 
<polyline style="fill-rule:evenodd;"
points="5969,2719
6480,2719
6480,3030
5969,3030
5969,2719
" /> 
<polyline style="fill-rule:evenodd;"
points="6469,14219
6980,14219
6980,14530
6469,14530
6469,14219
" /> 
<polyline style="fill-rule:evenodd;"
points="6469,14969
6980,14969
6980,15280
6469,15280
6469,14969
" /> 
<polyline style="fill-rule:evenodd;"
points="7219,15719
7730,15719
7730,16030
7219,16030
7219,15719
" /> 
<polyline style="fill-rule:evenodd;"
points="7219,16469
7730,16469
7730,16780
7219,16780
7219,16469
" /> 
<polyline style="fill-rule:evenodd;"
points="7730,19030
7219,19030
7219,18719
7730,18719
7730,19030
" /> 
<polyline style="fill-rule:evenodd;"
points="7730,18280
7219,18280
7219,17969
7730,17969
7730,18280
" /> 
<polyline style="fill-rule:evenodd;"
points="7730,15280
7219,15280
7219,14969
7730,14969
7730,15280
" /> 
<polyline style="fill-rule:evenodd;"
points="7730,14530
7219,14530
7219,14219
7730,14219
7730,14530
" /> 
<polyline style="fill-rule:evenodd;"
points="1944,4005
1944,3494
2255,3494
2255,4005
1944,4005
" /> 
<polyline style="fill-rule:evenodd;"
points="2694,4005
2694,3494
3005,3494
3005,4005
2694,4005
" /> 
<polyline style="fill-rule:evenodd;"
points="3980,8030
3469,8030
3469,7719
3980,7719
3980,8030
" /> 
<polyline style="fill-rule:evenodd;"
points="3980,7280
3469,7280
3469,6969
3980,6969
3980,7280
" /> 
<polyline style="fill-rule:evenodd;"
points="8005,5994
8005,6505
7694,6505
7694,5994
8005,5994
" /> 
<polyline style="fill-rule:evenodd;"
points="7255,5994
7255,6505
6944,6505
6944,5994
7255,5994
" /> 
</g>
<g style="fill:#808000; fill-opacity:1.0; 
stroke:#808000; stroke-width:39.3701; stroke-opacity:1; 
stroke-linecap:round; stroke-linejoin:round;">
<polyline style="fill-rule:evenodd;"
points="9230,12255
8719,12255
8719,11744
9230,11744
9230,12255
" /> 
<circle cx="8975" cy="11000" r="255.315" /> 
</g>
<g style="fill:#A00000; fill-opacity:1.0; 
stroke:#A00000; stroke-width:39.3701; stroke-opacity:1; 
stroke-linecap:round; stroke-linejoin:round;">
<polyline style="fill-rule:evenodd;"
points="5230,2362
5585,2362
5585,2637
5230,2637
5230,2362
" /> 
<polyline style="fill-rule:evenodd;"
points="4364,2737
4719,2737
4719,3012
4364,3012
4364,2737
" /> 
<polyline style="fill-rule:evenodd;"
points="4364,1987
4719,1987
4719,2262
4364,2262
4364,1987
" /> 
<polyline style="fill-rule:evenodd;"
points="2337,4744
2337,4389
2612,4389
2612,4744
2337,4744
" /> 
<polyline style="fill-rule:evenodd;"
points="2712,5610
2712,5255
2987,5255
2987,5610
2712,5610
" /> 
<polyline style="fill-rule:evenodd;"
points="1962,5610
1962,5255
2237,5255
2237,5610
1962,5610
" /> 
<polyline style="fill-rule:evenodd;"
points="4719,7637
4364,7637
4364,7362
4719,7362
4719,7637
" /> 
<polyline style="fill-rule:evenodd;"
points="5585,7262
5230,7262
5230,6987
5585,6987
5585,7262
" /> 
<polyline style="fill-rule:evenodd;"
points="5585,8012
5230,8012
5230,7737
5585,7737
5585,8012
" /> 
<polyline style="fill-rule:evenodd;"
points="7612,5255
7612,5610
7337,5610
7337,5255
7612,5255
" /> 
<polyline style="fill-rule:evenodd;"
points="7237,4389
7237,4744
6962,4744
6962,4389
7237,4389
" /> 
<polyline style="fill-rule:evenodd;"
points="7987,4389
7987,4744
7712,4744
7712,4389
7987,4389
" /> 
<polyline style="fill-rule:evenodd;"
points="6230,15280
5719,15280
5719,14969
6230,14969
6230,15280
" /> 
<polyline style="fill-rule:evenodd;"
points="6230,14530
5719,14530
5719,14219
6230,14219
6230,14530
" /> 
</g>
<g style="fill:#808000; fill-opacity:1.0; 
stroke:#808000; stroke-width:39.3701; stroke-opacity:1; 
stroke-linecap:round; stroke-linejoin:round;">
<polyline style="fill-rule:evenodd;"
points="7730,8794
7730,9305
7219,9305
7219,8794
7730,8794
" /> 
<circle cx="6475" cy="8950" r="255.315" /> 
<circle cx="5475" cy="9050" r="255.315" /> 
<circle cx="4475" cy="8950" r="255.315" /> 
<circle cx="3475" cy="9050" r="255.315" /> 
<circle cx="2475" cy="8950" r="255.315" /> 
<polyline style="fill-rule:evenodd;"
points="8680,19255
8169,19255
8169,18744
8680,18744
8680,19255
" /> 
<circle cx="8525" cy="18000" r="255.315" /> 
<circle cx="8425" cy="17000" r="255.315" /> 
<circle cx="8525" cy="16000" r="255.315" /> 
<circle cx="8425" cy="15000" r="255.315" /> 
<circle cx="8525" cy="14000" r="255.315" /> 
<polyline style="fill-rule:evenodd;"
points="1180,17755
669,17755
669,17244
1180,17244
1180,17755
" /> 
<circle cx="1025" cy="16500" r="255.315" /> 
<circle cx="925" cy="15500" r="255.315" /> 
<circle cx="1025" cy="14500" r="255.315" /> 
<circle cx="925" cy="13500" r="255.315" /> 
<circle cx="1025" cy="12500" r="255.315" /> 
<polyline style="fill-rule:evenodd;"
points="719,11205
719,10694
1230,10694
1230,11205
719,11205
" /> 
<circle cx="1975" cy="11050" r="255.315" /> 
<circle cx="2975" cy="10950" r="255.315" /> 
<polyline style="fill-rule:evenodd;"
points="2194,19330
2194,18769
2755,18769
2755,19330
2194,19330
" /> 
<circle cx="2475" cy="18050" r="280.315" /> 
<circle cx="3475" cy="18950" r="280.315" /> 
<circle cx="3475" cy="17950" r="280.315" /> 
<circle cx="4475" cy="19050" r="280.315" /> 
<circle cx="4475" cy="18050" r="280.315" /> 
<circle cx="5475" cy="18950" r="280.315" /> 
<circle cx="5475" cy="17950" r="280.315" /> 
<circle cx="6475" cy="19050" r="280.315" /> 
<circle cx="6475" cy="18050" r="280.315" /> 
<polyline style="fill-rule:evenodd;"
points="4694,12330
4694,11769
5255,11769
5255,12330
4694,12330
" /> 
<circle cx="4975" cy="11050" r="280.315" /> 
<circle cx="5975" cy="11950" r="280.315" /> 
<circle cx="5975" cy="10950" r="280.315" /> 
<circle cx="6975" cy="12050" r="280.315" /> 
<circle cx="6975" cy="11050" r="280.315" /> 
</g>
<g style="fill:#A00000; fill-opacity:1.0; 
stroke:#A00000; stroke-width:39.3701; stroke-opacity:1; 
stroke-linecap:round; stroke-linejoin:round;">
<polyline style="fill-rule:evenodd;"
points="6480,5530
5969,5530
5969,5219
6480,5219
6480,5530
" /> 
<polyline style="fill-rule:evenodd;"
points="6480,4780
5969,4780
5969,4469
6480,4469
6480,4780
" /> 
<polyline style="fill-rule:evenodd;"
points="4444,6505
4444,5994
4755,5994
4755,6505
4444,6505
" /> 
<polyline style="fill-rule:evenodd;"
points="5194,6505
5194,5994
5505,5994
5505,6505
5194,6505
" /> 
<polyline style="fill-rule:evenodd;"
points="3469,4469
3980,4469
3980,4780
3469,4780
3469,4469
" /> 
<polyline style="fill-rule:evenodd;"
points="3469,5219
3980,5219
3980,5530
3469,5530
3469,5219
" /> 
<polyline style="fill-rule:evenodd;"
points="5505,3494
5505,4005
5194,4005
5194,3494
5505,3494
" /> 
<polyline style="fill-rule:evenodd;"
points="4755,3494
4755,4005
4444,4005
4444,3494
4755,3494
" /> 
</g> 
</svg>
