<?xml version="1.0" standalone="no"?>
 <!DOCTYPE svg PUBLIC "-//W3C//DTD SVG 1.1//EN" 
 "http://www.w3.org/Graphics/SVG/1.1/DTD/svg11.dtd"> 
<svg xmlns="http://www.w3.org/2000/svg" version="1.1" 
    width="3.00736cm" height="5.07238cm" viewBox="0 0 11840 19970 ">
<title>SVG Picture created as HallStepMicro-F_Cu.svg date 2013/10/04 10:50:10 </title>
  <desc>Picture generated by PCBNEW </desc>
<g style="fill:#000000; fill-opacity:1;stroke:#000000; stroke-opacity:1;
stroke-linecap:round; stroke-linejoin:round; "
 transform="translate(0 0) scale(1 1)">
</g>
<g style="fill:#A00000; fill-opacity:0.0; 
stroke:#A00000; stroke-width:39.3701; stroke-opacity:1; 
stroke-linecap:round; stroke-linejoin:round;">
</g>
<g style="fill:#A00000; fill-opacity:1.0; 
stroke:#A00000; stroke-width:39.3701; stroke-opacity:1; 
stroke-linecap:round; stroke-linejoin:round;">
<polyline style="fill-rule:evenodd;"
points="4280,15330
3869,15330
3869,15169
4280,15169
4280,15330
" /> 
<polyline style="fill-rule:evenodd;"
points="4280,14830
3869,14830
3869,14669
4280,14669
4280,14830
" /> 
<polyline style="fill-rule:evenodd;"
points="4280,14330
3869,14330
3869,14169
4280,14169
4280,14330
" /> 
<polyline style="fill-rule:evenodd;"
points="4280,13830
3869,13830
3869,13669
4280,13669
4280,13830
" /> 
<polyline style="fill-rule:evenodd;"
points="4280,13330
3869,13330
3869,13169
4280,13169
4280,13330
" /> 
<polyline style="fill-rule:evenodd;"
points="4280,12830
3869,12830
3869,12669
4280,12669
4280,12830
" /> 
<polyline style="fill-rule:evenodd;"
points="4280,12330
3869,12330
3869,12169
4280,12169
4280,12330
" /> 
<polyline style="fill-rule:evenodd;"
points="2180,12330
1769,12330
1769,12169
2180,12169
2180,12330
" /> 
<polyline style="fill-rule:evenodd;"
points="2180,12830
1769,12830
1769,12669
2180,12669
2180,12830
" /> 
<polyline style="fill-rule:evenodd;"
points="2180,13330
1769,13330
1769,13169
2180,13169
2180,13330
" /> 
<polyline style="fill-rule:evenodd;"
points="2180,13830
1769,13830
1769,13669
2180,13669
2180,13830
" /> 
<polyline style="fill-rule:evenodd;"
points="2180,14330
1769,14330
1769,14169
2180,14169
2180,14330
" /> 
<polyline style="fill-rule:evenodd;"
points="2180,14830
1769,14830
1769,14669
2180,14669
2180,14830
" /> 
<polyline style="fill-rule:evenodd;"
points="2180,15330
1769,15330
1769,15169
2180,15169
2180,15330
" /> 
<polyline style="fill-rule:evenodd;"
points="8230,12280
7719,12280
7719,11969
8230,11969
8230,12280
" /> 
<polyline style="fill-rule:evenodd;"
points="8230,11530
7719,11530
7719,11219
8230,11219
8230,11530
" /> 
<polyline style="fill-rule:evenodd;"
points="3980,3030
3469,3030
3469,2719
3980,2719
3980,3030
" /> 
<polyline style="fill-rule:evenodd;"
points="3980,2280
3469,2280
3469,1969
3980,1969
3980,2280
" /> 
<polyline style="fill-rule:evenodd;"
points="3005,5994
3005,6505
2694,6505
2694,5994
3005,5994
" /> 
<polyline style="fill-rule:evenodd;"
points="2255,5994
2255,6505
1944,6505
1944,5994
2255,5994
" /> 
<polyline style="fill-rule:evenodd;"
points="5969,6969
6480,6969
6480,7280
5969,7280
5969,6969
" /> 
<polyline style="fill-rule:evenodd;"
points="5969,7719
6480,7719
6480,8030
5969,8030
5969,7719
" /> 
<polyline style="fill-rule:evenodd;"
points="6944,4005
6944,3494
7255,3494
7255,4005
6944,4005
" /> 
<polyline style="fill-rule:evenodd;"
points="7694,4005
7694,3494
8005,3494
8005,4005
7694,4005
" /> 
<polyline style="fill-rule:evenodd;"
points="5969,1969
6480,1969
6480,2280
5969,2280
5969,1969
" /> 
<polyline style="fill-rule:evenodd;"
points="5969,2719
6480,2719
6480,3030
5969,3030
5969,2719
" /> 
<polyline style="fill-rule:evenodd;"
points="6469,14219
6980,14219
6980,14530
6469,14530
6469,14219
" /> 
<polyline style="fill-rule:evenodd;"
points="6469,14969
6980,14969
6980,15280
6469,15280
6469,14969
" /> 
<polyline style="fill-rule:evenodd;"
points="7219,15719
7730,15719
7730,16030
7219,16030
7219,15719
" /> 
<polyline style="fill-rule:evenodd;"
points="7219,16469
7730,16469
7730,16780
7219,16780
7219,16469
" /> 
<polyline style="fill-rule:evenodd;"
points="7730,19030
7219,19030
7219,18719
7730,18719
7730,19030
" /> 
<polyline style="fill-rule:evenodd;"
points="7730,18280
7219,18280
7219,17969
7730,17969
7730,18280
" /> 
<polyline style="fill-rule:evenodd;"
points="7730,15280
7219,15280
7219,14969
7730,14969
7730,15280
" /> 
<polyline style="fill-rule:evenodd;"
points="7730,14530
7219,14530
7219,14219
7730,14219
7730,14530
" /> 
<polyline style="fill-rule:evenodd;"
points="1944,4005
1944,3494
2255,3494
2255,4005
1944,4005
" /> 
<polyline style="fill-rule:evenodd;"
points="2694,4005
2694,3494
3005,3494
3005,4005
2694,4005
" /> 
<polyline style="fill-rule:evenodd;"
points="3980,8030
3469,8030
3469,7719
3980,7719
3980,8030
" /> 
<polyline style="fill-rule:evenodd;"
points="3980,7280
3469,7280
3469,6969
3980,6969
3980,7280
" /> 
<polyline style="fill-rule:evenodd;"
points="8005,5994
8005,6505
7694,6505
7694,5994
8005,5994
" /> 
<polyline style="fill-rule:evenodd;"
points="7255,5994
7255,6505
6944,6505
6944,5994
7255,5994
" /> 
</g>
<g style="fill:#808000; fill-opacity:1.0; 
stroke:#808000; stroke-width:39.3701; stroke-opacity:1; 
stroke-linecap:round; stroke-linejoin:round;">
<polyline style="fill-rule:evenodd;"
points="9230,12255
8719,12255
8719,11744
9230,11744
9230,12255
" /> 
<circle cx="8975" cy="11000" r="255.315" /> 
</g>
<g style="fill:#A00000; fill-opacity:1.0; 
stroke:#A00000; stroke-width:39.3701; stroke-opacity:1; 
stroke-linecap:round; stroke-linejoin:round;">
<polyline style="fill-rule:evenodd;"
points="5230,2362
5585,2362
5585,2637
5230,2637
5230,2362
" /> 
<polyline style="fill-rule:evenodd;"
points="4364,2737
4719,2737
4719,3012
4364,3012
4364,2737
" /> 
<polyline style="fill-rule:evenodd;"
points="4364,1987
4719,1987
4719,2262
4364,2262
4364,1987
" /> 
<polyline style="fill-rule:evenodd;"
points="2337,4744
2337,4389
2612,4389
2612,4744
2337,4744
" /> 
<polyline style="fill-rule:evenodd;"
points="2712,5610
2712,5255
2987,5255
2987,5610
2712,5610
" /> 
<polyline style="fill-rule:evenodd;"
points="1962,5610
1962,5255
2237,5255
2237,5610
1962,5610
" /> 
<polyline style="fill-rule:evenodd;"
points="4719,7637
4364,7637
4364,7362
4719,7362
4719,7637
" /> 
<polyline style="fill-rule:evenodd;"
points="5585,7262
5230,7262
5230,6987
5585,6987
5585,7262
" /> 
<polyline style="fill-rule:evenodd;"
points="5585,8012
5230,8012
5230,7737
5585,7737
5585,8012
" /> 
<polyline style="fill-rule:evenodd;"
points="7612,5255
7612,5610
7337,5610
7337,5255
7612,5255
" /> 
<polyline style="fill-rule:evenodd;"
points="7237,4389
7237,4744
6962,4744
6962,4389
7237,4389
" /> 
<polyline style="fill-rule:evenodd;"
points="7987,4389
7987,4744
7712,4744
7712,4389
7987,4389
" /> 
<polyline style="fill-rule:evenodd;"
points="6230,15280
5719,15280
5719,14969
6230,14969
6230,15280
" /> 
<polyline style="fill-rule:evenodd;"
points="6230,14530
5719,14530
5719,14219
6230,14219
6230,14530
" /> 
</g>
<g style="fill:#808000; fill-opacity:1.0; 
stroke:#808000; stroke-width:39.3701; stroke-opacity:1; 
stroke-linecap:round; stroke-linejoin:round;">
<polyline style="fill-rule:evenodd;"
points="7730,8794
7730,9305
7219,9305
7219,8794
7730,8794
" /> 
<circle cx="6475" cy="8950" r="255.315" /> 
<circle cx="5475" cy="9050" r="255.315" /> 
<circle cx="4475" cy="8950" r="255.315" /> 
<circle cx="3475" cy="9050" r="255.315" /> 
<circle cx="2475" cy="8950" r="255.315" /> 
<polyline style="fill-rule:evenodd;"
points="8680,19255
8169,19255
8169,18744
8680,18744
8680,19255
" /> 
<circle cx="8525" cy="18000" r="255.315" /> 
<circle cx="8425" cy="17000" r="255.315" /> 
<circle cx="8525" cy="16000" r="255.315" /> 
<circle cx="8425" cy="15000" r="255.315" /> 
<circle cx="8525" cy="14000" r="255.315" /> 
<polyline style="fill-rule:evenodd;"
points="1180,17755
669,17755
669,17244
1180,17244
1180,17755
" /> 
<circle cx="1025" cy="16500" r="255.315" /> 
<circle cx="925" cy="15500" r="255.315" /> 
<circle cx="1025" cy="14500" r="255.315" /> 
<circle cx="925" cy="13500" r="255.315" /> 
<circle cx="1025" cy="12500" r="255.315" /> 
<polyline style="fill-rule:evenodd;"
points="719,11205
719,10694
1230,10694
1230,11205
719,11205
" /> 
<circle cx="1975" cy="11050" r="255.315" /> 
<circle cx="2975" cy="10950" r="255.315" /> 
<polyline style="fill-rule:evenodd;"
points="2194,19330
2194,18769
2755,18769
2755,19330
2194,19330
" /> 
<circle cx="2475" cy="18050" r="280.315" /> 
<circle cx="3475" cy="18950" r="280.315" /> 
<circle cx="3475" cy="17950" r="280.315" /> 
<circle cx="4475" cy="19050" r="280.315" /> 
<circle cx="4475" cy="18050" r="280.315" /> 
<circle cx="5475" cy="18950" r="280.315" /> 
<circle cx="5475" cy="17950" r="280.315" /> 
<circle cx="6475" cy="19050" r="280.315" /> 
<circle cx="6475" cy="18050" r="280.315" /> 
<polyline style="fill-rule:evenodd;"
points="4694,12330
4694,11769
5255,11769
5255,12330
4694,12330
" /> 
<circle cx="4975" cy="11050" r="280.315" /> 
<circle cx="5975" cy="11950" r="280.315" /> 
<circle cx="5975" cy="10950" r="280.315" /> 
<circle cx="6975" cy="12050" r="280.315" /> 
<circle cx="6975" cy="11050" r="280.315" /> 
</g>
<g style="fill:#A00000; fill-opacity:1.0; 
stroke:#A00000; stroke-width:39.3701; stroke-opacity:1; 
stroke-linecap:round; stroke-linejoin:round;">
<polyline style="fill-rule:evenodd;"
points="6480,5530
5969,5530
5969,5219
6480,5219
6480,5530
" /> 
<polyline style="fill-rule:evenodd;"
points="6480,4780
5969,4780
5969,4469
6480,4469
6480,4780
" /> 
<polyline style="fill-rule:evenodd;"
points="4444,6505
4444,5994
4755,5994
4755,6505
4444,6505
" /> 
<polyline style="fill-rule:evenodd;"
points="5194,6505
5194,5994
5505,5994
5505,6505
5194,6505
" /> 
<polyline style="fill-rule:evenodd;"
points="3469,4469
3980,4469
3980,4780
3469,4780
3469,4469
" /> 
<polyline style="fill-rule:evenodd;"
points="3469,5219
3980,5219
3980,5530
3469,5530
3469,5219
" /> 
<polyline style="fill-rule:evenodd;"
points="5505,3494
5505,4005
5194,4005
5194,3494
5505,3494
" /> 
<polyline style="fill-rule:evenodd;"
points="4755,3494
4755,4005
4444,4005
4444,3494
4755,3494
" /> 
</g>
<g style="fill:#C0C0C0; fill-opacity:1.0; 
stroke:#C0C0C0; stroke-width:39.3701; stroke-opacity:1; 
stroke-linecap:round; stroke-linejoin:round;">
<circle cx="4475" cy="13250" r="155.315" /> 
<circle cx="6225" cy="13250" r="155.315" /> 
<circle cx="6725" cy="16000" r="155.315" /> 
<circle cx="4475" cy="16000" r="155.315" /> 
<circle cx="6725" cy="15500" r="155.315" /> 
<circle cx="6725" cy="5000" r="155.315" /> 
<circle cx="5725" cy="7250" r="155.315" /> 
<circle cx="2975" cy="7750" r="155.315" /> 
<circle cx="4225" cy="3250" r="155.315" /> 
<circle cx="5475" cy="13750" r="155.315" /> 
<circle cx="4475" cy="13750" r="155.315" /> 
<circle cx="5475" cy="17000" r="155.315" /> 
<circle cx="2225" cy="12250" r="155.315" /> 
<circle cx="2975" cy="12750" r="155.315" /> 
<circle cx="4725" cy="5750" r="155.315" /> 
<circle cx="5725" cy="5250" r="155.315" /> 
<circle cx="5225" cy="4250" r="155.315" /> 
<circle cx="4225" cy="4750" r="155.315" /> 
<circle cx="1725" cy="4500" r="155.315" /> 
<circle cx="5475" cy="1750" r="155.315" /> 
<circle cx="8225" cy="5500" r="155.315" /> 
<circle cx="4475" cy="8250" r="155.315" /> 
<circle cx="7725" cy="15500" r="155.315" /> 
<circle cx="7975" cy="12500" r="155.315" /> 
<circle cx="6475" cy="14000" r="155.315" /> 
<circle cx="4075" cy="15600" r="155.315" /> 
</g>
<g style="fill:#A00000; fill-opacity:1.0; 
stroke:#A00000; stroke-width:100; stroke-opacity:1; 
stroke-linecap:round; stroke-linejoin:round;">
<path d="M7475 18125
L8350 18125
" />
<path d="M8350 18125
L8475 18000
" />
<path d="M7475 14375
L6225 13250
" />
<path d="M4475 13250
L4075 13250
" />
<path d="M7475 14375
L8100 15000
" />
<path d="M8100 15000
L8425 15000
" />
<path d="M4075 14250
L4225 14250
" />
<path d="M7350 16625
L7475 16625
" />
<path d="M6725 16000
L7350 16625
" />
<path d="M4475 14500
L4475 16000
" />
<path d="M4225 14250
L4475 14500
" />
<path d="M7475 16625
L8050 16625
" />
<path d="M8050 16625
L8425 17000
" />
<path d="M6725 15125
L6725 15500
" />
<path d="M5975 14375
L6725 15125
" />
<path d="M6225 4625
L7042 4625
" />
<path d="M7042 4625
L7100 4567
" />
<path d="M7100 4625
L7100 4567
" />
<path d="M6725 5000
L7100 4625
" />
<path d="M7100 4567
L7100 3750
" />
<path d="M5600 7125
L5408 7125
" />
<path d="M5725 7250
L5600 7125
" />
<path d="M5350 6250
L5350 7067
" />
<path d="M5350 7067
L5408 7125
" />
<path d="M5408 7125
L6225 7125
" />
<path d="M2725 6375
L2850 6250
" />
<path d="M2725 7500
L2725 6375
" />
<path d="M2975 7750
L2725 7500
" />
<path d="M3725 5375
L2908 5375
" />
<path d="M2908 5375
L2850 5433
" />
<path d="M2850 5433
L2850 6250
" />
<path d="M2908 5433
L2850 5433
" />
<path d="M4225 3250
L4542 2933
" />
<path d="M4542 2933
L4542 2875
" />
<path d="M4600 3750
L4600 2933
" />
<path d="M4600 2933
L4542 2875
" />
<path d="M4542 2875
L3725 2875
" />
<path d="M4600 2933
L4542 2875
" />
<path d="M7975 11375
L8350 11375
" />
<path d="M8350 11375
L8975 12000
" />
<path d="M7975 11375
L7650 11375
" />
<path d="M7650 11375
L6975 12050
" />
<path d="M4075 13750
L4475 13750
" />
<path d="M6525 12500
L6975 12050
" />
<path d="M5975 12500
L6525 12500
" />
<path d="M5475 13000
L5975 12500
" />
<path d="M5475 13750
L5475 13000
" />
<path d="M2975 10950
L2975 12250
" />
<path d="M3475 12750
L4075 12750
" />
<path d="M2975 12250
L3475 12750
" />
<path d="M5475 17000
L5475 15625
" />
<path d="M5475 15625
L5975 15125
" />
<path d="M3475 15000
L3725 14750
" />
<path d="M3725 14750
L4075 14750
" />
<path d="M4475 19000
L3975 18500
" />
<path d="M3975 18500
L3975 17750
" />
<path d="M3975 17750
L3475 17250
" />
<path d="M3475 17250
L3475 15000
" />
<path d="M4475 19050
L4475 19000
" />
<path d="M5475 18950
L5425 18950
" />
<path d="M5475 12500
L5475 11450
" />
<path d="M5125 12850
L5475 12500
" />
<path d="M5125 16550
L5125 12850
" />
<path d="M4975 16700
L5125 16550
" />
<path d="M4975 18500
L4975 16700
" />
<path d="M5425 18950
L4975 18500
" />
<path d="M5475 11450
L5275 11450
" />
<path d="M4075 11950
L4075 12250
" />
<path d="M4475 11550
L4075 11950
" />
<path d="M5175 11550
L4475 11550
" />
<path d="M5275 11450
L5175 11550
" />
<path d="M5475 11450
L5475 11450
" />
<path d="M5475 11450
L5975 10950
" />
<path d="M1975 12250
L2225 12250
" />
<path d="M4475 18050
L4475 16800
" />
<path d="M4875 12150
L4975 12050
" />
<path d="M4875 16400
L4875 12150
" />
<path d="M4775 16500
L4875 16400
" />
<path d="M4775 16500
L4775 16500
" />
<path d="M4475 16800
L4775 16500
" />
<path d="M2975 12750
L2975 18500
" />
<path d="M3425 18950
L3475 18950
" />
<path d="M2975 18500
L3425 18950
" />
<path d="M1975 12750
L2975 12750
" />
<path d="M1975 14750
L1675 14750
" />
<path d="M1675 14750
L925 15500
" />
<path d="M1975 14250
L1275 14250
" />
<path d="M1275 14250
L1025 14500
" />
<path d="M1975 13750
L1175 13750
" />
<path d="M1175 13750
L925 13500
" />
<path d="M1975 13250
L1775 13250
" />
<path d="M1775 13250
L1025 12500
" />
</g>
<g style="fill:#A00000; fill-opacity:1.0; 
stroke:#A00000; stroke-width:200; stroke-opacity:1; 
stroke-linecap:round; stroke-linejoin:round;">
<path d="M4600 6250
L4600 5875
" />
<path d="M4600 5875
L4725 5750
" />
<path d="M6225 5375
L5850 5375
" />
<path d="M5850 5375
L5725 5250
" />
<path d="M5350 3750
L5350 4125
" />
<path d="M5350 4125
L5225 4250
" />
<path d="M3725 4625
L4100 4625
" />
<path d="M4100 4625
L4225 4750
" />
<path d="M5408 7875
L5408 8067
" />
<path d="M4100 8250
L3725 7875
" />
<path d="M5225 8250
L4475 8250
" />
<path d="M4475 8250
L4100 8250
" />
<path d="M5408 8067
L5225 8250
" />
<path d="M2100 5433
L1908 5433
" />
<path d="M1725 4125
L2100 3750
" />
<path d="M1725 5250
L1725 4500
" />
<path d="M1725 4500
L1725 4125
" />
<path d="M1908 5433
L1725 5250
" />
<path d="M7850 4567
L8042 4567
" />
<path d="M8225 5875
L7850 6250
" />
<path d="M8225 4750
L8225 5500
" />
<path d="M8225 5500
L8225 5875
" />
<path d="M8042 4567
L8225 4750
" />
<path d="M4542 2125
L4542 1933
" />
<path d="M5850 1750
L6225 2125
" />
<path d="M4725 1750
L5475 1750
" />
<path d="M5475 1750
L5850 1750
" />
<path d="M4542 1933
L4725 1750
" />
<path d="M7475 15500
L7725 15500
" />
<path d="M7975 12125
L7975 12500
" />
<path d="M7475 15125
L7475 15500
" />
<path d="M7475 15500
L7475 15875
" />
<path d="M6725 14375
L7475 15125
" />
<path d="M6725 14375
L6725 14250
" />
<path d="M6725 14250
L6475 14000
" />
<path d="M4075 15250
L4075 15600
" />
<path d="M7475 18875
L8350 18875
" />
<path d="M8350 18875
L8475 19000
" />
</g>
<g style="fill:#A00000; fill-opacity:1.0; 
stroke:#A00000; stroke-width:39.3701; stroke-opacity:1; 
stroke-linecap:round; stroke-linejoin:round;">
<polyline style="fill-rule:evenodd;"
points="9650,6936
8650,7936
8650,5415
8585,5259
8575,5249
8575,4750
8575,4749
8575,4749
8548,4616
8472,4502
8472,4502
8289,4319
8244,4289
8219,4228
8197,4206
8236,4166
8274,4074
8275,3975
8275,3524
8274,3425
8236,3333
8166,3262
8074,3224
7962,3225
7900,3287
7900,3700
8212,3700
8275,3637
8275,3524
8275,3975
8275,3862
8212,3800
7900,3800
7900,3807
7800,3807
7800,3800
7792,3800
7792,3700
7800,3700
7800,3287
7737,3225
7625,3224
7533,3262
7474,3321
7416,3263
7324,3225
7225,3224
6875,3224
6783,3262
6750,3296
6750,3099
6750,2650
6712,2558
6653,2499
6711,2441
6749,2349
6750,2250
6750,1900
6712,1808
6641,1738
6549,1700
6450,1699
6294,1699
6097,1502
5983,1426
5850,1400
5726,1400
5716,1389
5559,1325
5390,1324
5234,1389
5224,1400
4725,1400
4725,1400
4591,1426
4477,1502
4477,1502
4294,1685
4264,1730
4203,1755
4181,1777
4141,1738
4049,1700
3950,1699
3837,1700
3775,1762
3775,2075
3782,2075
3782,2175
3775,2175
3775,2182
3675,2182
3675,2175
3675,2075
3675,1762
3612,1700
3499,1699
3400,1700
3308,1738
3237,1808
3199,1900
3200,2012
3262,2075
3675,2075
3675,2175
3262,2175
3200,2237
3199,2349
3237,2441
3296,2500
3238,2558
3200,2650
3199,2749
3199,3099
3237,3191
3308,3261
3400,3299
3499,3300
3799,3300
3799,3334
3864,3490
3983,3610
4140,3674
4174,3674
4174,4074
4212,4166
4283,4236
4375,4274
4474,4275
4799,4275
4799,4334
4864,4490
4983,4610
5140,4674
5309,4675
5465,4610
5585,4491
5649,4334
5649,4293
5649,4293
5673,4258
5680,4223
5736,4166
5774,4074
5775,3975
5775,3425
5737,3333
5666,3263
5574,3225
5475,3224
5125,3224
5033,3262
4974,3321
4916,3263
4900,3256
4900,3225
4950,3174
4988,3082
4989,2982
4989,2950
5125,2950
5125,2892
5161,2907
5260,2907
5295,2907
5358,2845
5358,2550
5350,2550
5350,2450
5358,2450
5358,2442
5458,2442
5458,2450
5465,2450
5465,2550
5458,2550
5458,2845
5520,2907
5555,2907
5654,2907
5700,2888
5700,2925
5762,2925
5700,2987
5699,3099
5737,3191
5808,3261
5900,3299
5999,3300
6112,3300
6175,3237
6175,2925
6167,2925
6167,2825
6175,2825
6175,2817
6275,2817
6275,2825
6687,2825
6750,2762
6750,2650
6750,3099
6750,2987
6687,2925
6275,2925
6275,3237
6337,3300
6450,3300
6549,3299
6641,3261
6712,3191
6750,3099
6750,3296
6713,3333
6675,3425
6674,3524
6674,4074
6712,4166
6752,4206
6730,4228
6701,4298
6641,4238
6549,4200
6450,4199
6175,4199
5900,4199
5808,4237
5738,4308
5700,4400
5699,4499
5699,4824
5640,4824
5484,4889
5364,5008
5300,5165
5299,5334
5364,5490
5483,5610
5640,5674
5681,5674
5681,5674
5716,5698
5751,5705
5808,5761
5900,5799
5999,5800
6549,5800
6641,5762
6711,5691
6749,5599
6750,5500
6750,5425
6809,5425
6965,5360
7067,5258
7067,5285
7067,5320
7130,5383
7425,5383
7425,5375
7525,5375
7525,5383
7532,5383
7532,5483
7525,5483
7525,5490
7425,5490
7425,5483
7130,5483
7067,5545
7067,5580
7067,5679
7086,5725
7049,5725
7049,5787
6987,5725
6875,5724
6783,5762
6713,5833
6675,5925
6674,6024
6675,6137
6737,6200
7050,6200
7050,6192
7150,6192
7150,6200
7157,6200
7157,6300
7150,6300
7150,6712
7212,6775
7324,6775
7416,6737
7475,6678
7533,6736
7625,6774
7724,6775
8074,6775
8166,6737
8236,6666
8274,6574
8275,6475
8275,6319
8472,6122
8548,6008
8575,5875
8575,5751
8585,5741
8649,5584
8650,5415
8650,7936
8280,8305
8220,8394
8200,8500
8200,9700
8000,9700
8000,9275
8000,8725
7962,8633
7891,8563
7799,8525
7700,8524
7150,8524
7058,8562
7050,8571
7050,6712
7050,6300
6737,6300
6675,6362
6674,6475
6675,6574
6713,6666
6783,6737
6875,6775
6987,6775
7050,6712
7050,8571
6988,8633
6952,8718
6935,8677
6842,8652
6772,8723
6772,8582
6750,8497
6750,8099
6750,7650
6712,7558
6653,7499
6711,7441
6749,7349
6750,7250
6750,6900
6712,6808
6641,6738
6549,6700
6450,6699
5900,6699
5808,6737
5768,6777
5746,6755
5676,6726
5736,6666
5774,6574
5775,6475
5775,5925
5737,5833
5666,5763
5574,5725
5475,5724
5150,5724
5150,5665
5085,5509
4966,5389
4809,5325
4640,5324
4484,5389
4364,5508
4300,5665
4300,5706
4300,5706
4276,5741
4269,5776
4213,5833
4175,5925
4174,6024
4174,6574
4212,6666
4283,6736
4375,6774
4474,6775
4824,6775
4916,6737
4975,6678
5033,6736
5050,6743
5050,6774
4999,6825
4961,6917
4960,7017
4960,7050
4825,7050
4825,7107
4788,7092
4689,7092
4654,7092
4592,7155
4592,7450
4599,7450
4599,7550
4592,7550
4592,7557
4492,7557
4492,7550
4484,7550
4484,7450
4492,7450
4492,7155
4429,7092
4394,7092
4295,7092
4250,7111
4250,7111
4250,7074
4187,7074
4250,7012
4250,6900
4212,6808
4141,6738
4049,6700
3950,6699
3837,6700
3775,6762
3775,7075
3782,7075
3782,7175
3775,7175
3775,7182
3675,7182
3675,7175
3675,7075
3675,6762
3612,6700
3499,6699
3400,6700
3308,6738
3237,6808
3199,6900
3200,7012
3262,7075
3675,7075
3675,7175
3262,7175
3200,7237
3199,7349
3217,7390
3216,7389
3059,7325
3025,7325
3025,6775
3074,6775
3166,6737
3236,6666
3274,6574
3275,6475
3275,5925
3237,5833
3197,5793
3219,5771
3248,5701
3308,5761
3400,5799
3499,5800
4049,5800
4141,5762
4211,5691
4249,5599
4250,5500
4250,5175
4309,5175
4465,5110
4585,4991
4649,4834
4650,4665
4585,4509
4466,4389
4309,4325
4268,4325
4268,4325
4233,4301
4198,4294
4141,4238
4049,4200
3950,4199
3400,4199
3308,4237
3275,4271
3238,4308
3200,4400
3199,4499
3199,4849
3237,4941
3296,5000
3238,5058
3231,5075
3200,5075
3149,5024
3057,4986
2957,4985
2925,4985
2925,4850
2867,4850
2882,4813
2882,4714
2882,4679
2820,4617
2525,4617
2525,4624
2425,4624
2425,4617
2417,4617
2417,4517
2425,4517
2425,4509
2525,4509
2525,4517
2820,4517
2882,4454
2882,4419
2882,4320
2863,4275
2900,4275
2900,4212
2962,4275
3074,4275
3166,4237
3236,4166
3274,4074
3275,3975
3275,3524
3274,3425
3236,3333
3166,3262
3074,3224
2962,3225
2900,3287
2900,3700
3212,3700
3275,3637
3275,3524
3275,3975
3275,3862
3212,3800
2900,3800
2900,3807
2800,3807
2800,3800
2792,3800
2792,3700
2800,3700
2800,3287
2737,3225
2625,3224
2533,3262
2474,3321
2416,3263
2324,3225
2225,3224
1875,3224
1783,3262
1713,3333
1675,3425
1674,3524
1674,3680
1477,3877
1401,3991
1375,4125
1375,4248
1364,4258
1300,4415
1299,4584
1364,4740
1375,4750
1375,5250
1401,5383
1477,5497
1660,5680
1660,5680
1705,5710
1730,5771
1752,5793
1713,5833
1675,5925
1674,6024
1675,6137
1737,6200
2050,6200
2050,6192
2150,6192
2150,6200
2157,6200
2157,6300
2150,6300
2150,6712
2212,6775
2324,6775
2416,6737
2425,6728
2425,7500
2447,7614
2512,7712
2550,7749
2549,7834
2614,7990
2733,8110
2890,8174
3059,8175
3206,8114
3237,8191
3308,8261
3400,8299
3499,8300
3655,8300
3852,8497
3966,8573
4085,8597
4030,8652
3954,8835
3920,8753
3772,8605
3579,8525
3371,8524
3178,8604
3030,8752
2995,8835
2920,8653
2772,8505
2579,8425
2371,8424
2178,8504
2050,8632
2050,6712
2050,6300
1737,6300
1675,6362
1674,6475
1675,6574
1713,6666
1783,6737
1875,6775
1987,6775
2050,6712
2050,8632
2030,8652
1950,8845
1949,9053
2029,9247
2177,9394
2370,9474
2578,9475
2772,9395
2919,9247
2954,9164
3029,9347
3177,9494
3370,9574
3578,9575
3772,9495
3919,9347
3995,9164
4029,9247
4177,9394
4370,9474
4578,9475
4772,9395
4919,9247
4954,9164
5029,9347
5177,9494
5370,9574
5578,9575
5772,9495
5919,9347
5993,9171
6014,9222
6107,9247
6404,8950
6107,8652
6014,8677
5956,8841
5920,8753
5772,8605
5579,8525
5431,8524
5472,8497
5655,8314
5655,8314
5655,8314
5685,8269
5746,8244
5768,8222
5808,8261
5900,8299
5999,8300
6112,8300
6175,8237
6175,7925
6167,7925
6167,7825
6175,7825
6175,7817
6275,7817
6275,7825
6687,7825
6750,7762
6750,7650
6750,8099
6750,7987
6687,7925
6275,7925
6275,8237
6337,8300
6450,8300
6549,8299
6641,8261
6712,8191
6750,8099
6750,8497
6747,8489
6550,8420
6342,8431
6202,8489
6177,8582
6475,8879
6772,8582
6772,8723
6545,8950
6842,9247
6935,9222
6949,9181
6949,9374
6987,9466
7058,9536
7150,9574
7249,9575
7799,9575
7891,9537
7961,9466
7999,9374
8000,9275
8000,9700
6772,9700
6772,9317
6475,9020
6177,9317
6202,9410
6399,9479
6607,9468
6747,9410
6772,9317
6772,9700
1750,9700
1750,8500
1729,8394
1729,8394
1669,8305
300,6936
300,3063
3038,325
6911,325
8280,1694
9650,3063
9650,6936
" /> 
</g>
<g style="fill:#A00000; fill-opacity:0.0; 
stroke:#A00000; stroke-width:100; stroke-opacity:1; 
stroke-linecap:round; stroke-linejoin:round;">
<polyline fill="none;"
points="9650,6936
8650,7936
8650,5415
8585,5259
8575,5249
8575,4750
8575,4749
8575,4749
8548,4616
8472,4502
8472,4502
8289,4319
8244,4289
8219,4228
8197,4206
8236,4166
8274,4074
8275,3975
8275,3524
8274,3425
8236,3333
8166,3262
8074,3224
7962,3225
7900,3287
7900,3700
8212,3700
8275,3637
8275,3524
8275,3975
8275,3862
8212,3800
7900,3800
7900,3807
7800,3807
7800,3800
7792,3800
7792,3700
7800,3700
7800,3287
7737,3225
7625,3224
7533,3262
7474,3321
7416,3263
7324,3225
7225,3224
6875,3224
6783,3262
6750,3296
6750,3099
6750,2650
6712,2558
6653,2499
6711,2441
6749,2349
6750,2250
6750,1900
6712,1808
6641,1738
6549,1700
6450,1699
6294,1699
6097,1502
5983,1426
5850,1400
5726,1400
5716,1389
5559,1325
5390,1324
5234,1389
5224,1400
4725,1400
4725,1400
4591,1426
4477,1502
4477,1502
4294,1685
4264,1730
4203,1755
4181,1777
4141,1738
4049,1700
3950,1699
3837,1700
3775,1762
3775,2075
3782,2075
3782,2175
3775,2175
3775,2182
3675,2182
3675,2175
3675,2075
3675,1762
3612,1700
3499,1699
3400,1700
3308,1738
3237,1808
3199,1900
3200,2012
3262,2075
3675,2075
3675,2175
3262,2175
3200,2237
3199,2349
3237,2441
3296,2500
3238,2558
3200,2650
3199,2749
3199,3099
3237,3191
3308,3261
3400,3299
3499,3300
3799,3300
3799,3334
3864,3490
3983,3610
4140,3674
4174,3674
4174,4074
4212,4166
4283,4236
4375,4274
4474,4275
4799,4275
4799,4334
4864,4490
4983,4610
5140,4674
5309,4675
5465,4610
5585,4491
5649,4334
5649,4293
5649,4293
5673,4258
5680,4223
5736,4166
5774,4074
5775,3975
5775,3425
5737,3333
5666,3263
5574,3225
5475,3224
5125,3224
5033,3262
4974,3321
4916,3263
4900,3256
4900,3225
4950,3174
4988,3082
4989,2982
4989,2950
5125,2950
5125,2892
5161,2907
5260,2907
5295,2907
5358,2845
5358,2550
5350,2550
5350,2450
5358,2450
5358,2442
5458,2442
5458,2450
5465,2450
5465,2550
5458,2550
5458,2845
5520,2907
5555,2907
5654,2907
5700,2888
5700,2925
5762,2925
5700,2987
5699,3099
5737,3191
5808,3261
5900,3299
5999,3300
6112,3300
6175,3237
6175,2925
6167,2925
6167,2825
6175,2825
6175,2817
6275,2817
6275,2825
6687,2825
6750,2762
6750,2650
6750,3099
6750,2987
6687,2925
6275,2925
6275,3237
6337,3300
6450,3300
6549,3299
6641,3261
6712,3191
6750,3099
6750,3296
6713,3333
6675,3425
6674,3524
6674,4074
6712,4166
6752,4206
6730,4228
6701,4298
6641,4238
6549,4200
6450,4199
6175,4199
5900,4199
5808,4237
5738,4308
5700,4400
5699,4499
5699,4824
5640,4824
5484,4889
5364,5008
5300,5165
5299,5334
5364,5490
5483,5610
5640,5674
5681,5674
5681,5674
5716,5698
5751,5705
5808,5761
5900,5799
5999,5800
6549,5800
6641,5762
6711,5691
6749,5599
6750,5500
6750,5425
6809,5425
6965,5360
7067,5258
7067,5285
7067,5320
7130,5383
7425,5383
7425,5375
7525,5375
7525,5383
7532,5383
7532,5483
7525,5483
7525,5490
7425,5490
7425,5483
7130,5483
7067,5545
7067,5580
7067,5679
7086,5725
7049,5725
7049,5787
6987,5725
6875,5724
6783,5762
6713,5833
6675,5925
6674,6024
6675,6137
6737,6200
7050,6200
7050,6192
7150,6192
7150,6200
7157,6200
7157,6300
7150,6300
7150,6712
7212,6775
7324,6775
7416,6737
7475,6678
7533,6736
7625,6774
7724,6775
8074,6775
8166,6737
8236,6666
8274,6574
8275,6475
8275,6319
8472,6122
8548,6008
8575,5875
8575,5751
8585,5741
8649,5584
8650,5415
8650,7936
8280,8305
8220,8394
8200,8500
8200,9700
8000,9700
8000,9275
8000,8725
7962,8633
7891,8563
7799,8525
7700,8524
7150,8524
7058,8562
7050,8571
7050,6712
7050,6300
6737,6300
6675,6362
6674,6475
6675,6574
6713,6666
6783,6737
6875,6775
6987,6775
7050,6712
7050,8571
6988,8633
6952,8718
6935,8677
6842,8652
6772,8723
6772,8582
6750,8497
6750,8099
6750,7650
6712,7558
6653,7499
6711,7441
6749,7349
6750,7250
6750,6900
6712,6808
6641,6738
6549,6700
6450,6699
5900,6699
5808,6737
5768,6777
5746,6755
5676,6726
5736,6666
5774,6574
5775,6475
5775,5925
5737,5833
5666,5763
5574,5725
5475,5724
5150,5724
5150,5665
5085,5509
4966,5389
4809,5325
4640,5324
4484,5389
4364,5508
4300,5665
4300,5706
4300,5706
4276,5741
4269,5776
4213,5833
4175,5925
4174,6024
4174,6574
4212,6666
4283,6736
4375,6774
4474,6775
4824,6775
4916,6737
4975,6678
5033,6736
5050,6743
5050,6774
4999,6825
4961,6917
4960,7017
4960,7050
4825,7050
4825,7107
4788,7092
4689,7092
4654,7092
4592,7155
4592,7450
4599,7450
4599,7550
4592,7550
4592,7557
4492,7557
4492,7550
4484,7550
4484,7450
4492,7450
4492,7155
4429,7092
4394,7092
4295,7092
4250,7111
4250,7111
4250,7074
4187,7074
4250,7012
4250,6900
4212,6808
4141,6738
4049,6700
3950,6699
3837,6700
3775,6762
3775,7075
3782,7075
3782,7175
3775,7175
3775,7182
3675,7182
3675,7175
3675,7075
3675,6762
3612,6700
3499,6699
3400,6700
3308,6738
3237,6808
3199,6900
3200,7012
3262,7075
3675,7075
3675,7175
3262,7175
3200,7237
3199,7349
3217,7390
3216,7389
3059,7325
3025,7325
3025,6775
3074,6775
3166,6737
3236,6666
3274,6574
3275,6475
3275,5925
3237,5833
3197,5793
3219,5771
3248,5701
3308,5761
3400,5799
3499,5800
4049,5800
4141,5762
4211,5691
4249,5599
4250,5500
4250,5175
4309,5175
4465,5110
4585,4991
4649,4834
4650,4665
4585,4509
4466,4389
4309,4325
4268,4325
4268,4325
4233,4301
4198,4294
4141,4238
4049,4200
3950,4199
3400,4199
3308,4237
3275,4271
3238,4308
3200,4400
3199,4499
3199,4849
3237,4941
3296,5000
3238,5058
3231,5075
3200,5075
3149,5024
3057,4986
2957,4985
2925,4985
2925,4850
2867,4850
2882,4813
2882,4714
2882,4679
2820,4617
2525,4617
2525,4624
2425,4624
2425,4617
2417,4617
2417,4517
2425,4517
2425,4509
2525,4509
2525,4517
2820,4517
2882,4454
2882,4419
2882,4320
2863,4275
2900,4275
2900,4212
2962,4275
3074,4275
3166,4237
3236,4166
3274,4074
3275,3975
3275,3524
3274,3425
3236,3333
3166,3262
3074,3224
2962,3225
2900,3287
2900,3700
3212,3700
3275,3637
3275,3524
3275,3975
3275,3862
3212,3800
2900,3800
2900,3807
2800,3807
2800,3800
2792,3800
2792,3700
2800,3700
2800,3287
2737,3225
2625,3224
2533,3262
2474,3321
2416,3263
2324,3225
2225,3224
1875,3224
1783,3262
1713,3333
1675,3425
1674,3524
1674,3680
1477,3877
1401,3991
1375,4125
1375,4248
1364,4258
1300,4415
1299,4584
1364,4740
1375,4750
1375,5250
1401,5383
1477,5497
1660,5680
1660,5680
1705,5710
1730,5771
1752,5793
1713,5833
1675,5925
1674,6024
1675,6137
1737,6200
2050,6200
2050,6192
2150,6192
2150,6200
2157,6200
2157,6300
2150,6300
2150,6712
2212,6775
2324,6775
2416,6737
2425,6728
2425,7500
2447,7614
2512,7712
2550,7749
2549,7834
2614,7990
2733,8110
2890,8174
3059,8175
3206,8114
3237,8191
3308,8261
3400,8299
3499,8300
3655,8300
3852,8497
3966,8573
4085,8597
4030,8652
3954,8835
3920,8753
3772,8605
3579,8525
3371,8524
3178,8604
3030,8752
2995,8835
2920,8653
2772,8505
2579,8425
2371,8424
2178,8504
2050,8632
2050,6712
2050,6300
1737,6300
1675,6362
1674,6475
1675,6574
1713,6666
1783,6737
1875,6775
1987,6775
2050,6712
2050,8632
2030,8652
1950,8845
1949,9053
2029,9247
2177,9394
2370,9474
2578,9475
2772,9395
2919,9247
2954,9164
3029,9347
3177,9494
3370,9574
3578,9575
3772,9495
3919,9347
3995,9164
4029,9247
4177,9394
4370,9474
4578,9475
4772,9395
4919,9247
4954,9164
5029,9347
5177,9494
5370,9574
5578,9575
5772,9495
5919,9347
5993,9171
6014,9222
6107,9247
6404,8950
6107,8652
6014,8677
5956,8841
5920,8753
5772,8605
5579,8525
5431,8524
5472,8497
5655,8314
5655,8314
5655,8314
5685,8269
5746,8244
5768,8222
5808,8261
5900,8299
5999,8300
6112,8300
6175,8237
6175,7925
6167,7925
6167,7825
6175,7825
6175,7817
6275,7817
6275,7825
6687,7825
6750,7762
6750,7650
6750,8099
6750,7987
6687,7925
6275,7925
6275,8237
6337,8300
6450,8300
6549,8299
6641,8261
6712,8191
6750,8099
6750,8497
6747,8489
6550,8420
6342,8431
6202,8489
6177,8582
6475,8879
6772,8582
6772,8723
6545,8950
6842,9247
6935,9222
6949,9181
6949,9374
6987,9466
7058,9536
7150,9574
7249,9575
7799,9575
7891,9537
7961,9466
7999,9374
8000,9275
8000,9700
6772,9700
6772,9317
6475,9020
6177,9317
6202,9410
6399,9479
6607,9468
6747,9410
6772,9317
6772,9700
1750,9700
1750,8500
1729,8394
1729,8394
1669,8305
300,6936
300,3063
3038,325
6911,325
8280,1694
9650,3063
9650,6936
" /> 
</g>
<g style="fill:#A00000; fill-opacity:1.0; 
stroke:#A00000; stroke-width:39.3701; stroke-opacity:1; 
stroke-linecap:round; stroke-linejoin:round;">
<polyline style="fill-rule:evenodd;"
points="9650,19675
9504,19675
9504,11075
9493,10867
9435,10727
9342,10702
9272,10773
9272,10632
9247,10539
9050,10470
8842,10481
8702,10539
8677,10632
8975,10929
9272,10632
9272,10773
9045,11000
9342,11297
9435,11272
9504,11075
9504,19675
9500,19675
9500,12225
9500,11675
9462,11583
9391,11513
9299,11475
9213,11474
9247,11460
9272,11367
8975,11070
8969,11076
8898,11005
8904,11000
8607,10702
8514,10727
8445,10924
8451,11048
8391,10988
8299,10950
8200,10949
7650,10949
7558,10987
7524,11022
7518,10913
7456,10762
7360,10734
7290,10805
7290,10664
7262,10568
7056,10495
6838,10506
6687,10568
6659,10664
6975,10979
7290,10664
7290,10805
7045,11050
7051,11055
6980,11126
6975,11120
6659,11435
6687,11531
6742,11550
6663,11583
6509,11738
6495,11770
6441,11638
6286,11484
6205,11450
6286,11416
6440,11261
6451,11236
6493,11337
6589,11365
6904,11050
6589,10734
6493,10762
6493,10763
6441,10638
6286,10484
6084,10400
5866,10399
5663,10483
5509,10638
5454,10769
5441,10738
5286,10584
5084,10500
4866,10499
4663,10583
4509,10738
4425,10940
4424,11158
4463,11252
4360,11272
4262,11337
3862,11737
3797,11835
3783,11906
3783,11906
3708,11937
3638,12008
3600,12100
3599,12199
3599,12399
3620,12450
3599,12450
3275,12125
3275,11392
3419,11247
3499,11054
3500,10846
3420,10653
3272,10505
3079,10425
2871,10424
2678,10504
2530,10652
2456,10828
2435,10777
2342,10752
2272,10823
2272,10682
2247,10589
2050,10520
1842,10531
1702,10589
1677,10682
1975,10979
2272,10682
2272,10823
2045,11050
2342,11347
2435,11322
2493,11158
2529,11247
2675,11392
2675,12250
2697,12364
2722,12401
2673,12450
2602,12450
2649,12334
2650,12165
2585,12009
2466,11889
2309,11825
2272,11825
2272,11417
1975,11120
1904,11191
1904,11050
1607,10752
1514,10777
1500,10818
1500,10625
1462,10533
1391,10463
1299,10425
1200,10424
650,10424
558,10462
488,10533
450,10625
449,10724
449,11274
487,11366
558,11436
650,11474
749,11475
1299,11475
1391,11437
1461,11366
1497,11281
1514,11322
1607,11347
1904,11050
1904,11191
1677,11417
1702,11510
1899,11579
2107,11568
2247,11510
2272,11417
2272,11825
2140,11824
1984,11889
1974,11899
1700,11899
1608,11937
1538,12008
1500,12100
1499,12199
1499,12274
1470,12203
1322,12055
1129,11975
921,11974
728,12054
580,12202
500,12395
499,12603
579,12797
727,12944
810,12979
628,13054
480,13202
400,13395
399,13603
479,13797
627,13944
810,14020
728,14054
580,14202
500,14395
499,14603
579,14797
727,14944
810,14979
628,15054
480,15202
400,15395
399,15603
479,15797
627,15944
803,16018
752,16039
727,16132
1025,16429
1322,16132
1297,16039
1133,15981
1222,15945
1369,15797
1449,15604
1450,15399
1549,15300
1562,15300
1500,15362
1499,15399
1537,15491
1608,15561
1700,15599
1799,15600
1862,15600
1925,15537
1925,15300
1917,15300
1917,15200
1925,15200
1925,15192
2025,15192
2025,15200
2387,15200
2450,15137
2450,15100
2412,15008
2403,15000
2411,14991
2449,14899
2450,14800
2450,14600
2412,14508
2403,14500
2411,14491
2449,14399
2450,14300
2450,14100
2412,14008
2403,14000
2411,13991
2449,13899
2450,13800
2450,13600
2412,13508
2403,13500
2411,13491
2449,13399
2450,13300
2450,13100
2429,13050
2673,13050
2675,13051
2675,17537
2556,17495
2450,17500
2450,15399
2450,15362
2387,15300
2025,15300
2025,15537
2087,15600
2150,15600
2249,15599
2341,15561
2412,15491
2450,15399
2450,17500
2338,17506
2187,17568
2159,17664
2475,17979
2480,17973
2551,18044
2545,18050
2551,18055
2480,18126
2475,18120
2404,18191
2404,18050
2089,17734
1993,17762
1925,17954
1920,17968
1931,18186
1993,18337
2089,18365
2404,18050
2404,18191
2159,18435
2178,18499
2125,18499
2033,18537
1963,18608
1925,18700
1924,18799
1925,18937
1987,19000
2425,19000
2425,18992
2525,18992
2525,19000
2532,19000
2532,19100
2525,19100
2525,19537
2587,19600
2824,19600
2916,19562
2986,19491
3024,19399
3025,19300
3025,19277
3163,19415
3365,19499
3583,19500
3786,19416
3940,19261
3954,19229
4008,19361
4163,19515
4365,19599
4583,19600
4786,19516
4940,19361
4995,19230
5008,19261
5163,19415
5365,19499
5583,19500
5786,19416
5940,19261
5951,19236
5993,19337
6089,19365
6404,19050
6089,18734
5993,18762
5993,18763
5941,18638
5786,18484
5711,18452
5762,18431
5790,18335
5475,18020
5469,18026
5398,17955
5404,17950
5398,17944
5469,17873
5475,17879
5790,17564
5762,17468
5596,17409
5715,17360
5835,17241
5899,17084
5900,16915
5835,16759
5775,16698
5775,15749
5974,15550
6299,15550
6299,15549
6299,15584
6364,15740
6373,15749
6364,15758
6300,15915
6299,16084
6364,16240
6483,16360
6640,16424
6725,16425
6949,16649
6949,16849
6987,16941
7058,17011
7150,17049
7249,17050
7799,17050
7891,17012
7899,17003
7899,17103
7979,17297
8127,17444
8310,17520
8228,17554
8080,17702
8029,17825
7968,17825
7962,17808
7891,17738
7799,17700
7700,17699
7150,17699
7058,17737
6988,17808
6981,17823
6956,17762
6860,17734
6790,17805
6790,17664
6762,17568
6556,17495
6338,17506
6187,17568
6159,17664
6475,17979
6790,17664
6790,17805
6545,18050
6860,18365
6949,18339
6949,18349
6987,18441
7046,18500
6988,18558
6950,18650
6949,18749
6949,18760
6860,18734
6790,18805
6790,18664
6762,18568
6714,18551
6762,18531
6790,18435
6475,18120
6404,18191
6404,18050
6089,17734
5997,17761
5956,17662
5860,17634
5545,17950
5860,18265
5952,18238
5993,18337
6089,18365
6404,18050
6404,18191
6159,18435
6187,18531
6235,18548
6187,18568
6159,18664
6475,18979
6790,18664
6790,18805
6545,19050
6860,19365
6956,19337
7003,19206
7058,19261
7150,19299
7249,19300
7799,19300
7891,19262
7899,19253
7899,19324
7937,19416
8008,19486
8100,19524
8199,19525
8749,19525
8841,19487
8911,19416
8949,19324
8950,19225
8950,18675
8912,18583
8841,18513
8750,18475
8822,18445
8969,18297
9049,18104
9050,17896
8970,17703
8822,17555
8639,17479
8722,17445
8869,17297
8949,17104
8950,16896
8870,16703
8722,16555
8639,16520
8822,16445
8969,16297
9049,16104
9050,15896
8970,15703
8822,15555
8639,15479
8722,15445
8869,15297
8949,15104
8950,14896
8870,14703
8722,14555
8637,14519
8657,14518
8797,14460
8822,14367
8525,14070
8454,14141
8454,14000
8157,13702
8064,13727
7995,13924
8006,14132
8064,14272
8157,14297
8454,14000
8454,14141
8227,14367
8252,14460
8308,14480
8128,14554
8103,14579
8000,14475
8000,14150
7962,14058
7891,13988
7799,13950
7700,13949
7450,13949
6650,13228
6650,13165
6585,13009
6466,12889
6309,12825
6140,12824
6027,12871
6099,12800
6525,12800
6525,12799
6639,12777
6639,12777
6737,12712
6853,12595
6865,12599
7083,12600
7286,12516
7440,12361
7449,12340
7449,12349
7487,12441
7549,12503
7549,12584
7614,12740
7733,12860
7890,12924
8059,12925
8215,12860
8335,12741
8399,12584
8399,12503
8461,12441
8480,12397
8487,12416
8558,12486
8650,12524
8749,12525
9299,12525
9391,12487
9461,12416
9499,12324
9500,12225
9500,19675
9054,19675
9054,14075
9043,13867
8985,13727
8892,13702
8822,13773
8822,13632
8797,13539
8600,13470
8392,13481
8252,13539
8227,13632
8525,13929
8822,13632
8822,13773
8595,14000
8892,14297
8985,14272
9054,14075
9054,19675
6790,19675
6790,19435
6475,19120
6159,19435
6187,19531
6393,19604
6611,19593
6762,19531
6790,19435
6790,19675
2425,19675
2425,19537
2425,19100
1987,19100
1925,19162
1924,19300
1925,19399
1963,19491
2033,19562
2125,19600
2362,19600
2425,19537
2425,19675
1554,19675
1554,16575
1543,16367
1485,16227
1392,16202
1095,16500
1392,16797
1485,16772
1554,16575
1554,19675
1450,19675
1450,17725
1450,17175
1412,17083
1341,17013
1256,16977
1297,16960
1322,16867
1025,16570
954,16641
954,16500
657,16202
564,16227
495,16424
506,16632
564,16772
657,16797
954,16500
954,16641
727,16867
752,16960
793,16974
600,16974
508,17012
438,17083
400,17175
399,17274
399,17824
437,17916
508,17986
600,18024
699,18025
1249,18025
1341,17987
1411,17916
1449,17824
1450,17725
1450,19675
300,19675
300,10300
9650,10300
9650,19675
" /> 
</g>
<g style="fill:#A00000; fill-opacity:0.0; 
stroke:#A00000; stroke-width:100; stroke-opacity:1; 
stroke-linecap:round; stroke-linejoin:round;">
<polyline fill="none;"
points="9650,19675
9504,19675
9504,11075
9493,10867
9435,10727
9342,10702
9272,10773
9272,10632
9247,10539
9050,10470
8842,10481
8702,10539
8677,10632
8975,10929
9272,10632
9272,10773
9045,11000
9342,11297
9435,11272
9504,11075
9504,19675
9500,19675
9500,12225
9500,11675
9462,11583
9391,11513
9299,11475
9213,11474
9247,11460
9272,11367
8975,11070
8969,11076
8898,11005
8904,11000
8607,10702
8514,10727
8445,10924
8451,11048
8391,10988
8299,10950
8200,10949
7650,10949
7558,10987
7524,11022
7518,10913
7456,10762
7360,10734
7290,10805
7290,10664
7262,10568
7056,10495
6838,10506
6687,10568
6659,10664
6975,10979
7290,10664
7290,10805
7045,11050
7051,11055
6980,11126
6975,11120
6659,11435
6687,11531
6742,11550
6663,11583
6509,11738
6495,11770
6441,11638
6286,11484
6205,11450
6286,11416
6440,11261
6451,11236
6493,11337
6589,11365
6904,11050
6589,10734
6493,10762
6493,10763
6441,10638
6286,10484
6084,10400
5866,10399
5663,10483
5509,10638
5454,10769
5441,10738
5286,10584
5084,10500
4866,10499
4663,10583
4509,10738
4425,10940
4424,11158
4463,11252
4360,11272
4262,11337
3862,11737
3797,11835
3783,11906
3783,11906
3708,11937
3638,12008
3600,12100
3599,12199
3599,12399
3620,12450
3599,12450
3275,12125
3275,11392
3419,11247
3499,11054
3500,10846
3420,10653
3272,10505
3079,10425
2871,10424
2678,10504
2530,10652
2456,10828
2435,10777
2342,10752
2272,10823
2272,10682
2247,10589
2050,10520
1842,10531
1702,10589
1677,10682
1975,10979
2272,10682
2272,10823
2045,11050
2342,11347
2435,11322
2493,11158
2529,11247
2675,11392
2675,12250
2697,12364
2722,12401
2673,12450
2602,12450
2649,12334
2650,12165
2585,12009
2466,11889
2309,11825
2272,11825
2272,11417
1975,11120
1904,11191
1904,11050
1607,10752
1514,10777
1500,10818
1500,10625
1462,10533
1391,10463
1299,10425
1200,10424
650,10424
558,10462
488,10533
450,10625
449,10724
449,11274
487,11366
558,11436
650,11474
749,11475
1299,11475
1391,11437
1461,11366
1497,11281
1514,11322
1607,11347
1904,11050
1904,11191
1677,11417
1702,11510
1899,11579
2107,11568
2247,11510
2272,11417
2272,11825
2140,11824
1984,11889
1974,11899
1700,11899
1608,11937
1538,12008
1500,12100
1499,12199
1499,12274
1470,12203
1322,12055
1129,11975
921,11974
728,12054
580,12202
500,12395
499,12603
579,12797
727,12944
810,12979
628,13054
480,13202
400,13395
399,13603
479,13797
627,13944
810,14020
728,14054
580,14202
500,14395
499,14603
579,14797
727,14944
810,14979
628,15054
480,15202
400,15395
399,15603
479,15797
627,15944
803,16018
752,16039
727,16132
1025,16429
1322,16132
1297,16039
1133,15981
1222,15945
1369,15797
1449,15604
1450,15399
1549,15300
1562,15300
1500,15362
1499,15399
1537,15491
1608,15561
1700,15599
1799,15600
1862,15600
1925,15537
1925,15300
1917,15300
1917,15200
1925,15200
1925,15192
2025,15192
2025,15200
2387,15200
2450,15137
2450,15100
2412,15008
2403,15000
2411,14991
2449,14899
2450,14800
2450,14600
2412,14508
2403,14500
2411,14491
2449,14399
2450,14300
2450,14100
2412,14008
2403,14000
2411,13991
2449,13899
2450,13800
2450,13600
2412,13508
2403,13500
2411,13491
2449,13399
2450,13300
2450,13100
2429,13050
2673,13050
2675,13051
2675,17537
2556,17495
2450,17500
2450,15399
2450,15362
2387,15300
2025,15300
2025,15537
2087,15600
2150,15600
2249,15599
2341,15561
2412,15491
2450,15399
2450,17500
2338,17506
2187,17568
2159,17664
2475,17979
2480,17973
2551,18044
2545,18050
2551,18055
2480,18126
2475,18120
2404,18191
2404,18050
2089,17734
1993,17762
1925,17954
1920,17968
1931,18186
1993,18337
2089,18365
2404,18050
2404,18191
2159,18435
2178,18499
2125,18499
2033,18537
1963,18608
1925,18700
1924,18799
1925,18937
1987,19000
2425,19000
2425,18992
2525,18992
2525,19000
2532,19000
2532,19100
2525,19100
2525,19537
2587,19600
2824,19600
2916,19562
2986,19491
3024,19399
3025,19300
3025,19277
3163,19415
3365,19499
3583,19500
3786,19416
3940,19261
3954,19229
4008,19361
4163,19515
4365,19599
4583,19600
4786,19516
4940,19361
4995,19230
5008,19261
5163,19415
5365,19499
5583,19500
5786,19416
5940,19261
5951,19236
5993,19337
6089,19365
6404,19050
6089,18734
5993,18762
5993,18763
5941,18638
5786,18484
5711,18452
5762,18431
5790,18335
5475,18020
5469,18026
5398,17955
5404,17950
5398,17944
5469,17873
5475,17879
5790,17564
5762,17468
5596,17409
5715,17360
5835,17241
5899,17084
5900,16915
5835,16759
5775,16698
5775,15749
5974,15550
6299,15550
6299,15549
6299,15584
6364,15740
6373,15749
6364,15758
6300,15915
6299,16084
6364,16240
6483,16360
6640,16424
6725,16425
6949,16649
6949,16849
6987,16941
7058,17011
7150,17049
7249,17050
7799,17050
7891,17012
7899,17003
7899,17103
7979,17297
8127,17444
8310,17520
8228,17554
8080,17702
8029,17825
7968,17825
7962,17808
7891,17738
7799,17700
7700,17699
7150,17699
7058,17737
6988,17808
6981,17823
6956,17762
6860,17734
6790,17805
6790,17664
6762,17568
6556,17495
6338,17506
6187,17568
6159,17664
6475,17979
6790,17664
6790,17805
6545,18050
6860,18365
6949,18339
6949,18349
6987,18441
7046,18500
6988,18558
6950,18650
6949,18749
6949,18760
6860,18734
6790,18805
6790,18664
6762,18568
6714,18551
6762,18531
6790,18435
6475,18120
6404,18191
6404,18050
6089,17734
5997,17761
5956,17662
5860,17634
5545,17950
5860,18265
5952,18238
5993,18337
6089,18365
6404,18050
6404,18191
6159,18435
6187,18531
6235,18548
6187,18568
6159,18664
6475,18979
6790,18664
6790,18805
6545,19050
6860,19365
6956,19337
7003,19206
7058,19261
7150,19299
7249,19300
7799,19300
7891,19262
7899,19253
7899,19324
7937,19416
8008,19486
8100,19524
8199,19525
8749,19525
8841,19487
8911,19416
8949,19324
8950,19225
8950,18675
8912,18583
8841,18513
8750,18475
8822,18445
8969,18297
9049,18104
9050,17896
8970,17703
8822,17555
8639,17479
8722,17445
8869,17297
8949,17104
8950,16896
8870,16703
8722,16555
8639,16520
8822,16445
8969,16297
9049,16104
9050,15896
8970,15703
8822,15555
8639,15479
8722,15445
8869,15297
8949,15104
8950,14896
8870,14703
8722,14555
8637,14519
8657,14518
8797,14460
8822,14367
8525,14070
8454,14141
8454,14000
8157,13702
8064,13727
7995,13924
8006,14132
8064,14272
8157,14297
8454,14000
8454,14141
8227,14367
8252,14460
8308,14480
8128,14554
8103,14579
8000,14475
8000,14150
7962,14058
7891,13988
7799,13950
7700,13949
7450,13949
6650,13228
6650,13165
6585,13009
6466,12889
6309,12825
6140,12824
6027,12871
6099,12800
6525,12800
6525,12799
6639,12777
6639,12777
6737,12712
6853,12595
6865,12599
7083,12600
7286,12516
7440,12361
7449,12340
7449,12349
7487,12441
7549,12503
7549,12584
7614,12740
7733,12860
7890,12924
8059,12925
8215,12860
8335,12741
8399,12584
8399,12503
8461,12441
8480,12397
8487,12416
8558,12486
8650,12524
8749,12525
9299,12525
9391,12487
9461,12416
9499,12324
9500,12225
9500,19675
9054,19675
9054,14075
9043,13867
8985,13727
8892,13702
8822,13773
8822,13632
8797,13539
8600,13470
8392,13481
8252,13539
8227,13632
8525,13929
8822,13632
8822,13773
8595,14000
8892,14297
8985,14272
9054,14075
9054,19675
6790,19675
6790,19435
6475,19120
6159,19435
6187,19531
6393,19604
6611,19593
6762,19531
6790,19435
6790,19675
2425,19675
2425,19537
2425,19100
1987,19100
1925,19162
1924,19300
1925,19399
1963,19491
2033,19562
2125,19600
2362,19600
2425,19537
2425,19675
1554,19675
1554,16575
1543,16367
1485,16227
1392,16202
1095,16500
1392,16797
1485,16772
1554,16575
1554,19675
1450,19675
1450,17725
1450,17175
1412,17083
1341,17013
1256,16977
1297,16960
1322,16867
1025,16570
954,16641
954,16500
657,16202
564,16227
495,16424
506,16632
564,16772
657,16797
954,16500
954,16641
727,16867
752,16960
793,16974
600,16974
508,17012
438,17083
400,17175
399,17274
399,17824
437,17916
508,17986
600,18024
699,18025
1249,18025
1341,17987
1411,17916
1449,17824
1450,17725
1450,19675
300,19675
300,10300
9650,10300
9650,19675
" /> 
</g>
<g style="fill:#FFFFFF; fill-opacity:0.0; 
stroke:#FFFFFF; stroke-width:39.3701; stroke-opacity:1; 
stroke-linecap:round; stroke-linejoin:round;">
</g>
<g style="fill:#FFFFFF; fill-opacity:1.0; 
stroke:#FFFFFF; stroke-width:39.3701; stroke-opacity:1; 
stroke-linecap:round; stroke-linejoin:round;">
<circle cx="4475" cy="13250" r="105.315" /> 
<circle cx="6225" cy="13250" r="105.315" /> 
<circle cx="6725" cy="16000" r="105.315" /> 
<circle cx="4475" cy="16000" r="105.315" /> 
<circle cx="6725" cy="15500" r="105.315" /> 
<circle cx="6725" cy="5000" r="105.315" /> 
<circle cx="5725" cy="7250" r="105.315" /> 
<circle cx="2975" cy="7750" r="105.315" /> 
<circle cx="4225" cy="3250" r="105.315" /> 
<circle cx="5475" cy="13750" r="105.315" /> 
<circle cx="4475" cy="13750" r="105.315" /> 
<circle cx="5475" cy="17000" r="105.315" /> 
<circle cx="2225" cy="12250" r="105.315" /> 
<circle cx="2975" cy="12750" r="105.315" /> 
<circle cx="4725" cy="5750" r="105.315" /> 
<circle cx="5725" cy="5250" r="105.315" /> 
<circle cx="5225" cy="4250" r="105.315" /> 
<circle cx="4225" cy="4750" r="105.315" /> 
<circle cx="1725" cy="4500" r="105.315" /> 
<circle cx="5475" cy="1750" r="105.315" /> 
<circle cx="8225" cy="5500" r="105.315" /> 
<circle cx="4475" cy="8250" r="105.315" /> 
<circle cx="7725" cy="15500" r="105.315" /> 
<circle cx="7975" cy="12500" r="105.315" /> 
<circle cx="6475" cy="14000" r="105.315" /> 
<circle cx="4075" cy="15600" r="105.315" /> 
<circle cx="8975" cy="12000" r="140.315" /> 
<circle cx="8975" cy="11000" r="140.315" /> 
<circle cx="7475" cy="9050" r="140.315" /> 
<circle cx="6475" cy="8950" r="140.315" /> 
<circle cx="5475" cy="9050" r="140.315" /> 
<circle cx="4475" cy="8950" r="140.315" /> 
<circle cx="3475" cy="9050" r="140.315" /> 
<circle cx="2475" cy="8950" r="140.315" /> 
<circle cx="8425" cy="19000" r="140.315" /> 
<circle cx="8525" cy="18000" r="140.315" /> 
<circle cx="8425" cy="17000" r="140.315" /> 
<circle cx="8525" cy="16000" r="140.315" /> 
<circle cx="8425" cy="15000" r="140.315" /> 
<circle cx="8525" cy="14000" r="140.315" /> 
<circle cx="925" cy="17500" r="140.315" /> 
<circle cx="1025" cy="16500" r="140.315" /> 
<circle cx="925" cy="15500" r="140.315" /> 
<circle cx="1025" cy="14500" r="140.315" /> 
<circle cx="925" cy="13500" r="140.315" /> 
<circle cx="1025" cy="12500" r="140.315" /> 
<circle cx="975" cy="10950" r="140.315" /> 
<circle cx="1975" cy="11050" r="140.315" /> 
<circle cx="2975" cy="10950" r="140.315" /> 
<circle cx="2475" cy="19050" r="180.315" /> 
<circle cx="2475" cy="18050" r="180.315" /> 
<circle cx="3475" cy="18950" r="180.315" /> 
<circle cx="3475" cy="17950" r="180.315" /> 
<circle cx="4475" cy="19050" r="180.315" /> 
<circle cx="4475" cy="18050" r="180.315" /> 
<circle cx="5475" cy="18950" r="180.315" /> 
<circle cx="5475" cy="17950" r="180.315" /> 
<circle cx="6475" cy="19050" r="180.315" /> 
<circle cx="6475" cy="18050" r="180.315" /> 
<circle cx="4975" cy="12050" r="180.315" /> 
<circle cx="4975" cy="11050" r="180.315" /> 
<circle cx="5975" cy="11950" r="180.315" /> 
<circle cx="5975" cy="10950" r="180.315" /> 
<circle cx="6975" cy="12050" r="180.315" /> 
<circle cx="6975" cy="11050" r="180.315" /> 
</g> 
</svg>
