<?xml version="1.0" standalone="no"?>
 <!DOCTYPE svg PUBLIC "-//W3C//DTD SVG 1.1//EN" 
 "http://www.w3.org/Graphics/SVG/1.1/DTD/svg11.dtd"> 
<svg xmlns="http://www.w3.org/2000/svg" version="1.1" 
    width="3.00736cm" height="5.07238cm" viewBox="0 0 11840 19970 ">
<title>SVG Picture created as HallStepMicro-B_Mask.svg date 2013/10/04 10:50:10 </title>
  <desc>Picture generated by PCBNEW </desc>
<g style="fill:#000000; fill-opacity:1;stroke:#000000; stroke-opacity:1;
stroke-linecap:round; stroke-linejoin:round; "
 transform="translate(0 0) scale(1 1)">
</g>
<g style="fill:#808000; fill-opacity:0.0; 
stroke:#808000; stroke-width:39.3701; stroke-opacity:1; 
stroke-linecap:round; stroke-linejoin:round;">
</g>
<g style="fill:#808000; fill-opacity:1.0; 
stroke:#808000; stroke-width:39.3701; stroke-opacity:1; 
stroke-linecap:round; stroke-linejoin:round;">
<polyline style="fill-rule:evenodd;"
points="9230,12255
8719,12255
8719,11744
9230,11744
9230,12255
" /> 
<circle cx="8975" cy="11000" r="255.315" /> 
<polyline style="fill-rule:evenodd;"
points="7730,8794
7730,9305
7219,9305
7219,8794
7730,8794
" /> 
<circle cx="6475" cy="8950" r="255.315" /> 
<circle cx="5475" cy="9050" r="255.315" /> 
<circle cx="4475" cy="8950" r="255.315" /> 
<circle cx="3475" cy="9050" r="255.315" /> 
<circle cx="2475" cy="8950" r="255.315" /> 
<polyline style="fill-rule:evenodd;"
points="8680,19255
8169,19255
8169,18744
8680,18744
8680,19255
" /> 
<circle cx="8525" cy="18000" r="255.315" /> 
<circle cx="8425" cy="17000" r="255.315" /> 
<circle cx="8525" cy="16000" r="255.315" /> 
<circle cx="8425" cy="15000" r="255.315" /> 
<circle cx="8525" cy="14000" r="255.315" /> 
<polyline style="fill-rule:evenodd;"
points="1180,17755
669,17755
669,17244
1180,17244
1180,17755
" /> 
<circle cx="1025" cy="16500" r="255.315" /> 
<circle cx="925" cy="15500" r="255.315" /> 
<circle cx="1025" cy="14500" r="255.315" /> 
<circle cx="925" cy="13500" r="255.315" /> 
<circle cx="1025" cy="12500" r="255.315" /> 
<polyline style="fill-rule:evenodd;"
points="719,11205
719,10694
1230,10694
1230,11205
719,11205
" /> 
<circle cx="1975" cy="11050" r="255.315" /> 
<circle cx="2975" cy="10950" r="255.315" /> 
<polyline style="fill-rule:evenodd;"
points="2194,19330
2194,18769
2755,18769
2755,19330
2194,19330
" /> 
<circle cx="2475" cy="18050" r="280.315" /> 
<circle cx="3475" cy="18950" r="280.315" /> 
<circle cx="3475" cy="17950" r="280.315" /> 
<circle cx="4475" cy="19050" r="280.315" /> 
<circle cx="4475" cy="18050" r="280.315" /> 
<circle cx="5475" cy="18950" r="280.315" /> 
<circle cx="5475" cy="17950" r="280.315" /> 
<circle cx="6475" cy="19050" r="280.315" /> 
<circle cx="6475" cy="18050" r="280.315" /> 
<polyline style="fill-rule:evenodd;"
points="4694,12330
4694,11769
5255,11769
5255,12330
4694,12330
" /> 
<circle cx="4975" cy="11050" r="280.315" /> 
<circle cx="5975" cy="11950" r="280.315" /> 
<circle cx="5975" cy="10950" r="280.315" /> 
<circle cx="6975" cy="12050" r="280.315" /> 
<circle cx="6975" cy="11050" r="280.315" /> 
</g> 
</svg>
