<?xml version="1.0" standalone="no"?>
 <!DOCTYPE svg PUBLIC "-//W3C//DTD SVG 1.1//EN" 
 "http://www.w3.org/Graphics/SVG/1.1/DTD/svg11.dtd"> 
<svg xmlns="http://www.w3.org/2000/svg" version="1.1" 
    width="3.00736cm" height="5.07238cm" viewBox="0 0 11840 19970 ">
<title>SVG Picture created as HallStepMicro-B_Cu.svg date 2013/10/04 10:50:10 </title>
  <desc>Picture generated by PCBNEW </desc>
<g style="fill:#000000; fill-opacity:1;stroke:#000000; stroke-opacity:1;
stroke-linecap:round; stroke-linejoin:round; "
 transform="translate(0 0) scale(1 1)">
</g>
<g style="fill:#808000; fill-opacity:0.0; 
stroke:#808000; stroke-width:39.3701; stroke-opacity:1; 
stroke-linecap:round; stroke-linejoin:round;">
</g>
<g style="fill:#808000; fill-opacity:1.0; 
stroke:#808000; stroke-width:39.3701; stroke-opacity:1; 
stroke-linecap:round; stroke-linejoin:round;">
<polyline style="fill-rule:evenodd;"
points="9230,12255
8719,12255
8719,11744
9230,11744
9230,12255
" /> 
<circle cx="8975" cy="11000" r="255.315" /> 
<polyline style="fill-rule:evenodd;"
points="7730,8794
7730,9305
7219,9305
7219,8794
7730,8794
" /> 
<circle cx="6475" cy="8950" r="255.315" /> 
<circle cx="5475" cy="9050" r="255.315" /> 
<circle cx="4475" cy="8950" r="255.315" /> 
<circle cx="3475" cy="9050" r="255.315" /> 
<circle cx="2475" cy="8950" r="255.315" /> 
<polyline style="fill-rule:evenodd;"
points="8680,19255
8169,19255
8169,18744
8680,18744
8680,19255
" /> 
<circle cx="8525" cy="18000" r="255.315" /> 
<circle cx="8425" cy="17000" r="255.315" /> 
<circle cx="8525" cy="16000" r="255.315" /> 
<circle cx="8425" cy="15000" r="255.315" /> 
<circle cx="8525" cy="14000" r="255.315" /> 
<polyline style="fill-rule:evenodd;"
points="1180,17755
669,17755
669,17244
1180,17244
1180,17755
" /> 
<circle cx="1025" cy="16500" r="255.315" /> 
<circle cx="925" cy="15500" r="255.315" /> 
<circle cx="1025" cy="14500" r="255.315" /> 
<circle cx="925" cy="13500" r="255.315" /> 
<circle cx="1025" cy="12500" r="255.315" /> 
<polyline style="fill-rule:evenodd;"
points="719,11205
719,10694
1230,10694
1230,11205
719,11205
" /> 
<circle cx="1975" cy="11050" r="255.315" /> 
<circle cx="2975" cy="10950" r="255.315" /> 
<polyline style="fill-rule:evenodd;"
points="2194,19330
2194,18769
2755,18769
2755,19330
2194,19330
" /> 
<circle cx="2475" cy="18050" r="280.315" /> 
<circle cx="3475" cy="18950" r="280.315" /> 
<circle cx="3475" cy="17950" r="280.315" /> 
<circle cx="4475" cy="19050" r="280.315" /> 
<circle cx="4475" cy="18050" r="280.315" /> 
<circle cx="5475" cy="18950" r="280.315" /> 
<circle cx="5475" cy="17950" r="280.315" /> 
<circle cx="6475" cy="19050" r="280.315" /> 
<circle cx="6475" cy="18050" r="280.315" /> 
<polyline style="fill-rule:evenodd;"
points="4694,12330
4694,11769
5255,11769
5255,12330
4694,12330
" /> 
<circle cx="4975" cy="11050" r="280.315" /> 
<circle cx="5975" cy="11950" r="280.315" /> 
<circle cx="5975" cy="10950" r="280.315" /> 
<circle cx="6975" cy="12050" r="280.315" /> 
<circle cx="6975" cy="11050" r="280.315" /> 
</g>
<g style="fill:#C0C0C0; fill-opacity:1.0; 
stroke:#C0C0C0; stroke-width:39.3701; stroke-opacity:1; 
stroke-linecap:round; stroke-linejoin:round;">
<circle cx="4475" cy="13250" r="155.315" /> 
<circle cx="6225" cy="13250" r="155.315" /> 
<circle cx="6725" cy="16000" r="155.315" /> 
<circle cx="4475" cy="16000" r="155.315" /> 
<circle cx="6725" cy="15500" r="155.315" /> 
<circle cx="6725" cy="5000" r="155.315" /> 
<circle cx="5725" cy="7250" r="155.315" /> 
<circle cx="2975" cy="7750" r="155.315" /> 
<circle cx="4225" cy="3250" r="155.315" /> 
<circle cx="5475" cy="13750" r="155.315" /> 
<circle cx="4475" cy="13750" r="155.315" /> 
<circle cx="5475" cy="17000" r="155.315" /> 
<circle cx="2225" cy="12250" r="155.315" /> 
<circle cx="2975" cy="12750" r="155.315" /> 
<circle cx="4725" cy="5750" r="155.315" /> 
<circle cx="5725" cy="5250" r="155.315" /> 
<circle cx="5225" cy="4250" r="155.315" /> 
<circle cx="4225" cy="4750" r="155.315" /> 
<circle cx="1725" cy="4500" r="155.315" /> 
<circle cx="5475" cy="1750" r="155.315" /> 
<circle cx="8225" cy="5500" r="155.315" /> 
<circle cx="4475" cy="8250" r="155.315" /> 
<circle cx="7725" cy="15500" r="155.315" /> 
<circle cx="7975" cy="12500" r="155.315" /> 
<circle cx="6475" cy="14000" r="155.315" /> 
<circle cx="4075" cy="15600" r="155.315" /> 
</g>
<g style="fill:#00A000; fill-opacity:1.0; 
stroke:#00A000; stroke-width:100; stroke-opacity:1; 
stroke-linecap:round; stroke-linejoin:round;">
<path d="M4475 13250
L6225 13250
" />
<path d="M4475 16000
L6725 16000
" />
<path d="M7225 16000
L8525 16000
" />
<path d="M6725 15500
L7225 16000
" />
<path d="M5475 9050
L5475 9000
" />
<path d="M6725 7750
L6725 5000
" />
<path d="M5475 9000
L6725 7750
" />
<path d="M5725 8000
L5725 7250
" />
<path d="M4775 8950
L5725 8000
" />
<path d="M4475 8950
L4775 8950
" />
<path d="M3475 9050
L3475 9049
" />
<path d="M2975 8549
L2975 7750
" />
<path d="M3475 9049
L2975 8549
" />
<path d="M2475 8950
L2475 6250
" />
<path d="M2475 6250
L3225 5500
" />
<path d="M3475 4000
L3225 4250
" />
<path d="M3475 4000
L4225 3250
" />
<path d="M3225 4250
L3225 5500
" />
<path d="M4475 13750
L5475 13750
" />
<path d="M3475 17950
L3775 17950
" />
<path d="M3775 17950
L4725 17000
" />
<path d="M4725 17000
L4725 17000
" />
<path d="M4725 17000
L5475 17000
" />
<path d="M2425 12050
L4975 12050
" />
<path d="M2225 12250
L2425 12050
" />
<path d="M5975 11950
L5975 12000
" />
<path d="M5225 12750
L5975 12000
" />
<path d="M5225 12750
L2975 12750
" />
<path d="M2975 12750
L2975 12750
" />
</g>
<g style="fill:#00A000; fill-opacity:1.0; 
stroke:#00A000; stroke-width:39.3701; stroke-opacity:1; 
stroke-linecap:round; stroke-linejoin:round;">
<polyline style="fill-rule:evenodd;"
points="9650,6936
8280,8305
8225,8388
8225,5150
8225,4850
7122,4850
7085,4759
6966,4639
6809,4575
6640,4574
6484,4639
6364,4758
6300,4915
6299,5084
6364,5240
6425,5301
6425,7625
6018,8032
6025,8000
6025,8000
6025,7551
6085,7491
6149,7334
6150,7165
6085,7009
5966,6889
5809,6825
5640,6824
5484,6889
5364,7008
5300,7165
5299,7334
5364,7490
5425,7551
5425,7875
5125,8175
5125,7050
5125,2950
5125,1750
4825,1750
4825,2950
5125,2950
5125,7050
4825,7050
4825,8250
5050,8250
4784,8516
4772,8505
4579,8425
4371,8424
4178,8504
4030,8652
3954,8835
3920,8753
3772,8605
3579,8525
3374,8524
3275,8425
3275,8051
3335,7991
3399,7834
3400,7665
3335,7509
3216,7389
3059,7325
2890,7324
2775,7372
2775,6374
3437,5712
3437,5712
3502,5614
3525,5500
3525,5500
3525,4374
3687,4212
3687,4212
3687,4212
4224,3674
4309,3675
4465,3610
4585,3491
4649,3334
4650,3165
4585,3009
4466,2889
4309,2825
4140,2824
3984,2889
3864,3008
3800,3165
3799,3250
3262,3787
3262,3787
3012,4037
2947,4135
2925,4250
2925,4850
1725,4850
1725,5150
2925,5150
2925,5375
2262,6037
2197,6135
2175,6250
2175,8507
2030,8652
1950,8845
1949,9053
2029,9247
2177,9394
2370,9474
2578,9475
2772,9395
2919,9247
2954,9164
3029,9347
3177,9494
3370,9574
3578,9575
3772,9495
3919,9347
3995,9164
4029,9247
4177,9394
4370,9474
4578,9475
4772,9395
4919,9247
4943,9191
4943,9191
4960,9179
5029,9347
5177,9494
5370,9574
5578,9575
5772,9495
5919,9347
5995,9164
6029,9247
6177,9394
6370,9474
6578,9475
6772,9395
6919,9247
6949,9175
6949,9275
6950,9374
6988,9466
7058,9537
7150,9575
7362,9575
7425,9512
7425,9100
7417,9100
7417,9000
7425,9000
7425,8587
7362,8525
7150,8524
7058,8562
6988,8633
6950,8724
6920,8653
6772,8505
6579,8425
6474,8424
6937,7962
7002,7864
7025,7750
7025,7750
7025,5301
7085,5241
7122,5150
8225,5150
8225,8388
8220,8394
8200,8500
8200,9700
8000,9700
8000,9275
8000,8824
7999,8725
7961,8633
7891,8562
7799,8524
7587,8525
7525,8587
7525,9000
7937,9000
8000,8937
8000,8824
8000,9275
8000,9162
7937,9100
7525,9100
7525,9512
7587,9575
7799,9575
7891,9537
7961,9466
7999,9374
8000,9275
8000,9700
1750,9700
1750,8500
1729,8394
1729,8394
1669,8305
300,6936
300,3063
3038,325
6911,325
8280,1694
9650,3063
9650,6936
" /> 
</g>
<g style="fill:#00A000; fill-opacity:0.0; 
stroke:#00A000; stroke-width:100; stroke-opacity:1; 
stroke-linecap:round; stroke-linejoin:round;">
<polyline fill="none;"
points="9650,6936
8280,8305
8225,8388
8225,5150
8225,4850
7122,4850
7085,4759
6966,4639
6809,4575
6640,4574
6484,4639
6364,4758
6300,4915
6299,5084
6364,5240
6425,5301
6425,7625
6018,8032
6025,8000
6025,8000
6025,7551
6085,7491
6149,7334
6150,7165
6085,7009
5966,6889
5809,6825
5640,6824
5484,6889
5364,7008
5300,7165
5299,7334
5364,7490
5425,7551
5425,7875
5125,8175
5125,7050
5125,2950
5125,1750
4825,1750
4825,2950
5125,2950
5125,7050
4825,7050
4825,8250
5050,8250
4784,8516
4772,8505
4579,8425
4371,8424
4178,8504
4030,8652
3954,8835
3920,8753
3772,8605
3579,8525
3374,8524
3275,8425
3275,8051
3335,7991
3399,7834
3400,7665
3335,7509
3216,7389
3059,7325
2890,7324
2775,7372
2775,6374
3437,5712
3437,5712
3502,5614
3525,5500
3525,5500
3525,4374
3687,4212
3687,4212
3687,4212
4224,3674
4309,3675
4465,3610
4585,3491
4649,3334
4650,3165
4585,3009
4466,2889
4309,2825
4140,2824
3984,2889
3864,3008
3800,3165
3799,3250
3262,3787
3262,3787
3012,4037
2947,4135
2925,4250
2925,4850
1725,4850
1725,5150
2925,5150
2925,5375
2262,6037
2197,6135
2175,6250
2175,8507
2030,8652
1950,8845
1949,9053
2029,9247
2177,9394
2370,9474
2578,9475
2772,9395
2919,9247
2954,9164
3029,9347
3177,9494
3370,9574
3578,9575
3772,9495
3919,9347
3995,9164
4029,9247
4177,9394
4370,9474
4578,9475
4772,9395
4919,9247
4943,9191
4943,9191
4960,9179
5029,9347
5177,9494
5370,9574
5578,9575
5772,9495
5919,9347
5995,9164
6029,9247
6177,9394
6370,9474
6578,9475
6772,9395
6919,9247
6949,9175
6949,9275
6950,9374
6988,9466
7058,9537
7150,9575
7362,9575
7425,9512
7425,9100
7417,9100
7417,9000
7425,9000
7425,8587
7362,8525
7150,8524
7058,8562
6988,8633
6950,8724
6920,8653
6772,8505
6579,8425
6474,8424
6937,7962
7002,7864
7025,7750
7025,7750
7025,5301
7085,5241
7122,5150
8225,5150
8225,8388
8220,8394
8200,8500
8200,9700
8000,9700
8000,9275
8000,8824
7999,8725
7961,8633
7891,8562
7799,8524
7587,8525
7525,8587
7525,9000
7937,9000
8000,8937
8000,8824
8000,9275
8000,9162
7937,9100
7525,9100
7525,9512
7587,9575
7799,9575
7891,9537
7961,9466
7999,9374
8000,9275
8000,9700
1750,9700
1750,8500
1729,8394
1729,8394
1669,8305
300,6936
300,3063
3038,325
6911,325
8280,1694
9650,3063
9650,6936
" /> 
</g>
<g style="fill:#00A000; fill-opacity:1.0; 
stroke:#00A000; stroke-width:39.3701; stroke-opacity:1; 
stroke-linecap:round; stroke-linejoin:round;">
<polyline style="fill-rule:evenodd;"
points="9650,19675
9500,19675
9500,10896
9420,10703
9272,10555
9079,10475
8871,10474
8678,10554
8530,10702
8450,10895
8449,11103
8529,11297
8677,11444
8749,11474
8650,11474
8558,11512
8488,11583
8450,11675
8449,11774
8449,12324
8487,12416
8558,12486
8650,12524
8749,12525
9299,12525
9391,12487
9461,12416
9499,12324
9500,12225
9500,11675
9462,11583
9391,11513
9299,11475
9200,11474
9200,11474
9272,11445
9419,11297
9499,11104
9500,10896
9500,19675
9050,19675
9050,17896
8970,17703
8822,17555
8639,17479
8722,17445
8869,17297
8949,17104
8950,16896
8870,16703
8722,16555
8639,16520
8822,16445
8969,16297
9049,16104
9050,15896
8970,15703
8822,15555
8639,15479
8722,15445
8869,15297
8949,15104
8950,14896
8870,14703
8722,14555
8639,14520
8822,14445
8969,14297
9049,14104
9050,13896
8970,13703
8822,13555
8629,13475
8421,13474
8228,13554
8080,13702
8000,13895
7999,14103
8079,14297
8227,14444
8310,14479
8128,14554
7980,14702
7900,14895
7899,15103
7979,15297
8127,15444
8310,15520
8228,15554
8082,15700
7525,15700
7525,11941
7441,11738
7286,11584
7205,11550
7286,11516
7440,11361
7524,11159
7525,10941
7441,10738
7286,10584
7084,10500
6866,10499
6663,10583
6509,10738
6495,10770
6441,10638
6286,10484
6084,10400
5866,10399
5663,10483
5509,10638
5456,10763
5456,10762
5360,10734
5290,10805
5290,10664
5262,10568
5056,10495
4838,10506
4687,10568
4659,10664
4975,10979
5290,10664
5290,10805
5045,11050
5360,11365
5456,11337
5495,11228
5508,11261
5663,11415
5744,11449
5663,11483
5509,11638
5504,11649
5487,11608
5416,11538
5324,11500
5271,11499
5290,11435
4975,11120
4904,11191
4904,11050
4589,10734
4493,10762
4420,10968
4431,11186
4493,11337
4589,11365
4904,11050
4904,11191
4659,11435
4678,11499
4625,11499
4533,11537
4463,11608
4425,11700
4425,11750
3500,11750
3500,10846
3420,10653
3272,10505
3079,10425
2871,10424
2678,10504
2530,10652
2454,10835
2420,10753
2272,10605
2079,10525
1871,10524
1678,10604
1530,10752
1500,10824
1500,10724
1499,10625
1461,10533
1391,10462
1299,10424
1087,10425
1025,10487
1025,10900
1032,10900
1032,11000
1025,11000
1025,11412
1087,11475
1299,11475
1391,11437
1461,11366
1499,11275
1529,11347
1677,11494
1870,11574
2078,11575
2272,11495
2419,11347
2495,11164
2529,11247
2677,11394
2870,11474
3078,11475
3272,11395
3419,11247
3499,11054
3500,10846
3500,11750
2425,11750
2310,11772
2232,11825
2232,11825
2140,11824
1984,11889
1864,12008
1800,12165
1799,12334
1864,12490
1983,12610
2140,12674
2309,12675
2465,12610
2585,12491
2643,12350
2830,12350
2734,12389
2614,12508
2550,12665
2549,12834
2614,12990
2733,13110
2890,13174
3059,13175
3215,13110
3276,13050
4097,13050
4050,13165
4049,13334
4114,13490
4123,13499
4114,13508
4050,13665
4049,13834
4114,13990
4233,14110
4390,14174
4559,14175
4715,14110
4776,14050
5173,14050
5233,14110
5390,14174
5559,14175
5715,14110
5835,13991
5899,13834
5900,13665
5852,13550
5923,13550
5983,13610
6140,13674
6309,13675
6465,13610
6585,13491
6649,13334
6650,13165
6585,13009
6466,12889
6309,12825
6140,12824
5984,12889
5923,12950
5449,12950
5899,12499
6083,12500
6286,12416
6440,12261
6454,12229
6508,12361
6663,12515
6865,12599
7083,12600
7286,12516
7440,12361
7524,12159
7525,11941
7525,15700
7349,15700
7150,15500
7150,15415
7085,15259
6966,15139
6809,15075
6640,15074
6484,15139
6364,15258
6300,15415
6299,15584
6347,15700
4776,15700
4716,15639
4559,15575
4390,15574
4234,15639
4114,15758
4050,15915
4049,16084
4114,16240
4233,16360
4390,16424
4559,16425
4715,16360
4776,16300
6423,16300
6483,16360
6640,16424
6809,16425
6965,16360
7073,16252
7073,16252
7110,16277
7225,16300
8082,16300
8227,16444
8310,16479
8128,16554
7980,16702
7900,16895
7899,17103
7979,17297
8127,17444
8310,17520
8228,17554
8080,17702
8000,17895
7999,18103
8079,18297
8227,18444
8299,18474
8199,18474
8100,18475
8008,18513
7937,18583
7899,18675
7900,18887
7962,18950
8375,18950
8375,18942
8475,18942
8475,18950
8887,18950
8950,18887
8950,18675
8912,18583
8841,18513
8750,18475
8822,18445
8969,18297
9049,18104
9050,17896
9050,19675
8950,19675
8950,19324
8950,19112
8887,19050
8475,19050
8475,19462
8537,19525
8650,19525
8749,19524
8841,19486
8912,19416
8950,19324
8950,19675
8375,19675
8375,19462
8375,19050
7962,19050
7900,19112
7899,19324
7937,19416
8008,19486
8100,19524
8199,19525
8312,19525
8375,19462
8375,19675
7025,19675
7025,18941
6941,18738
6786,18584
6705,18550
6786,18516
6940,18361
7024,18159
7025,17941
6941,17738
6786,17584
6584,17500
6366,17499
6163,17583
6009,17738
5995,17770
5941,17638
5786,17484
5602,17407
5715,17360
5835,17241
5899,17084
5900,16915
5835,16759
5716,16639
5559,16575
5390,16574
5234,16639
5173,16700
4725,16700
4610,16722
4512,16787
3801,17498
3786,17484
3584,17400
3366,17399
3163,17483
3009,17638
2954,17769
2941,17738
2786,17584
2584,17500
2366,17499
2163,17583
2009,17738
1925,17940
1924,18158
2008,18361
2147,18499
2125,18499
2033,18537
1963,18608
1925,18700
1924,18799
1924,19399
1962,19491
2033,19561
2125,19599
2224,19600
2824,19600
2916,19562
2986,19491
3024,19399
3025,19300
3025,19277
3163,19415
3365,19499
3583,19500
3786,19416
3940,19261
3954,19229
4008,19361
4163,19515
4365,19599
4583,19600
4786,19516
4940,19361
4995,19230
5008,19261
5163,19415
5365,19499
5583,19500
5786,19416
5940,19261
5954,19229
6008,19361
6163,19515
6365,19599
6583,19600
6786,19516
6940,19361
7024,19159
7025,18941
7025,19675
1550,19675
1550,16396
1470,16203
1322,16055
1139,15979
1222,15945
1369,15797
1449,15604
1450,15396
1370,15203
1222,15055
1139,15020
1322,14945
1469,14797
1549,14604
1550,14396
1470,14203
1322,14055
1139,13979
1222,13945
1369,13797
1449,13604
1450,13396
1370,13203
1222,13055
1139,13020
1322,12945
1469,12797
1549,12604
1550,12396
1470,12203
1322,12055
1129,11975
925,11974
925,11412
925,11000
925,10900
925,10487
862,10425
650,10424
558,10462
488,10533
450,10625
449,10724
450,10837
512,10900
925,10900
925,11000
512,11000
450,11062
449,11175
450,11274
488,11366
558,11437
650,11475
862,11475
925,11412
925,11974
921,11974
728,12054
580,12202
500,12395
499,12603
579,12797
727,12944
810,12979
628,13054
480,13202
400,13395
399,13603
479,13797
627,13944
810,14020
728,14054
580,14202
500,14395
499,14603
579,14797
727,14944
810,14979
628,15054
480,15202
400,15395
399,15603
479,15797
627,15944
810,16020
728,16054
580,16202
500,16395
499,16603
579,16797
727,16944
799,16974
699,16974
600,16975
508,17013
437,17083
399,17175
400,17387
462,17450
875,17450
875,17442
975,17442
975,17450
1387,17450
1450,17387
1450,17175
1412,17083
1341,17013
1250,16975
1322,16945
1469,16797
1549,16604
1550,16396
1550,19675
1450,19675
1450,17824
1450,17612
1387,17550
975,17550
975,17962
1037,18025
1150,18025
1249,18024
1341,17986
1412,17916
1450,17824
1450,19675
875,19675
875,17962
875,17550
462,17550
400,17612
399,17824
437,17916
508,17986
600,18024
699,18025
812,18025
875,17962
875,19675
300,19675
300,10300
9650,10300
9650,19675
" /> 
</g>
<g style="fill:#00A000; fill-opacity:0.0; 
stroke:#00A000; stroke-width:100; stroke-opacity:1; 
stroke-linecap:round; stroke-linejoin:round;">
<polyline fill="none;"
points="9650,19675
9500,19675
9500,10896
9420,10703
9272,10555
9079,10475
8871,10474
8678,10554
8530,10702
8450,10895
8449,11103
8529,11297
8677,11444
8749,11474
8650,11474
8558,11512
8488,11583
8450,11675
8449,11774
8449,12324
8487,12416
8558,12486
8650,12524
8749,12525
9299,12525
9391,12487
9461,12416
9499,12324
9500,12225
9500,11675
9462,11583
9391,11513
9299,11475
9200,11474
9200,11474
9272,11445
9419,11297
9499,11104
9500,10896
9500,19675
9050,19675
9050,17896
8970,17703
8822,17555
8639,17479
8722,17445
8869,17297
8949,17104
8950,16896
8870,16703
8722,16555
8639,16520
8822,16445
8969,16297
9049,16104
9050,15896
8970,15703
8822,15555
8639,15479
8722,15445
8869,15297
8949,15104
8950,14896
8870,14703
8722,14555
8639,14520
8822,14445
8969,14297
9049,14104
9050,13896
8970,13703
8822,13555
8629,13475
8421,13474
8228,13554
8080,13702
8000,13895
7999,14103
8079,14297
8227,14444
8310,14479
8128,14554
7980,14702
7900,14895
7899,15103
7979,15297
8127,15444
8310,15520
8228,15554
8082,15700
7525,15700
7525,11941
7441,11738
7286,11584
7205,11550
7286,11516
7440,11361
7524,11159
7525,10941
7441,10738
7286,10584
7084,10500
6866,10499
6663,10583
6509,10738
6495,10770
6441,10638
6286,10484
6084,10400
5866,10399
5663,10483
5509,10638
5456,10763
5456,10762
5360,10734
5290,10805
5290,10664
5262,10568
5056,10495
4838,10506
4687,10568
4659,10664
4975,10979
5290,10664
5290,10805
5045,11050
5360,11365
5456,11337
5495,11228
5508,11261
5663,11415
5744,11449
5663,11483
5509,11638
5504,11649
5487,11608
5416,11538
5324,11500
5271,11499
5290,11435
4975,11120
4904,11191
4904,11050
4589,10734
4493,10762
4420,10968
4431,11186
4493,11337
4589,11365
4904,11050
4904,11191
4659,11435
4678,11499
4625,11499
4533,11537
4463,11608
4425,11700
4425,11750
3500,11750
3500,10846
3420,10653
3272,10505
3079,10425
2871,10424
2678,10504
2530,10652
2454,10835
2420,10753
2272,10605
2079,10525
1871,10524
1678,10604
1530,10752
1500,10824
1500,10724
1499,10625
1461,10533
1391,10462
1299,10424
1087,10425
1025,10487
1025,10900
1032,10900
1032,11000
1025,11000
1025,11412
1087,11475
1299,11475
1391,11437
1461,11366
1499,11275
1529,11347
1677,11494
1870,11574
2078,11575
2272,11495
2419,11347
2495,11164
2529,11247
2677,11394
2870,11474
3078,11475
3272,11395
3419,11247
3499,11054
3500,10846
3500,11750
2425,11750
2310,11772
2232,11825
2232,11825
2140,11824
1984,11889
1864,12008
1800,12165
1799,12334
1864,12490
1983,12610
2140,12674
2309,12675
2465,12610
2585,12491
2643,12350
2830,12350
2734,12389
2614,12508
2550,12665
2549,12834
2614,12990
2733,13110
2890,13174
3059,13175
3215,13110
3276,13050
4097,13050
4050,13165
4049,13334
4114,13490
4123,13499
4114,13508
4050,13665
4049,13834
4114,13990
4233,14110
4390,14174
4559,14175
4715,14110
4776,14050
5173,14050
5233,14110
5390,14174
5559,14175
5715,14110
5835,13991
5899,13834
5900,13665
5852,13550
5923,13550
5983,13610
6140,13674
6309,13675
6465,13610
6585,13491
6649,13334
6650,13165
6585,13009
6466,12889
6309,12825
6140,12824
5984,12889
5923,12950
5449,12950
5899,12499
6083,12500
6286,12416
6440,12261
6454,12229
6508,12361
6663,12515
6865,12599
7083,12600
7286,12516
7440,12361
7524,12159
7525,11941
7525,15700
7349,15700
7150,15500
7150,15415
7085,15259
6966,15139
6809,15075
6640,15074
6484,15139
6364,15258
6300,15415
6299,15584
6347,15700
4776,15700
4716,15639
4559,15575
4390,15574
4234,15639
4114,15758
4050,15915
4049,16084
4114,16240
4233,16360
4390,16424
4559,16425
4715,16360
4776,16300
6423,16300
6483,16360
6640,16424
6809,16425
6965,16360
7073,16252
7073,16252
7110,16277
7225,16300
8082,16300
8227,16444
8310,16479
8128,16554
7980,16702
7900,16895
7899,17103
7979,17297
8127,17444
8310,17520
8228,17554
8080,17702
8000,17895
7999,18103
8079,18297
8227,18444
8299,18474
8199,18474
8100,18475
8008,18513
7937,18583
7899,18675
7900,18887
7962,18950
8375,18950
8375,18942
8475,18942
8475,18950
8887,18950
8950,18887
8950,18675
8912,18583
8841,18513
8750,18475
8822,18445
8969,18297
9049,18104
9050,17896
9050,19675
8950,19675
8950,19324
8950,19112
8887,19050
8475,19050
8475,19462
8537,19525
8650,19525
8749,19524
8841,19486
8912,19416
8950,19324
8950,19675
8375,19675
8375,19462
8375,19050
7962,19050
7900,19112
7899,19324
7937,19416
8008,19486
8100,19524
8199,19525
8312,19525
8375,19462
8375,19675
7025,19675
7025,18941
6941,18738
6786,18584
6705,18550
6786,18516
6940,18361
7024,18159
7025,17941
6941,17738
6786,17584
6584,17500
6366,17499
6163,17583
6009,17738
5995,17770
5941,17638
5786,17484
5602,17407
5715,17360
5835,17241
5899,17084
5900,16915
5835,16759
5716,16639
5559,16575
5390,16574
5234,16639
5173,16700
4725,16700
4610,16722
4512,16787
3801,17498
3786,17484
3584,17400
3366,17399
3163,17483
3009,17638
2954,17769
2941,17738
2786,17584
2584,17500
2366,17499
2163,17583
2009,17738
1925,17940
1924,18158
2008,18361
2147,18499
2125,18499
2033,18537
1963,18608
1925,18700
1924,18799
1924,19399
1962,19491
2033,19561
2125,19599
2224,19600
2824,19600
2916,19562
2986,19491
3024,19399
3025,19300
3025,19277
3163,19415
3365,19499
3583,19500
3786,19416
3940,19261
3954,19229
4008,19361
4163,19515
4365,19599
4583,19600
4786,19516
4940,19361
4995,19230
5008,19261
5163,19415
5365,19499
5583,19500
5786,19416
5940,19261
5954,19229
6008,19361
6163,19515
6365,19599
6583,19600
6786,19516
6940,19361
7024,19159
7025,18941
7025,19675
1550,19675
1550,16396
1470,16203
1322,16055
1139,15979
1222,15945
1369,15797
1449,15604
1450,15396
1370,15203
1222,15055
1139,15020
1322,14945
1469,14797
1549,14604
1550,14396
1470,14203
1322,14055
1139,13979
1222,13945
1369,13797
1449,13604
1450,13396
1370,13203
1222,13055
1139,13020
1322,12945
1469,12797
1549,12604
1550,12396
1470,12203
1322,12055
1129,11975
925,11974
925,11412
925,11000
925,10900
925,10487
862,10425
650,10424
558,10462
488,10533
450,10625
449,10724
450,10837
512,10900
925,10900
925,11000
512,11000
450,11062
449,11175
450,11274
488,11366
558,11437
650,11475
862,11475
925,11412
925,11974
921,11974
728,12054
580,12202
500,12395
499,12603
579,12797
727,12944
810,12979
628,13054
480,13202
400,13395
399,13603
479,13797
627,13944
810,14020
728,14054
580,14202
500,14395
499,14603
579,14797
727,14944
810,14979
628,15054
480,15202
400,15395
399,15603
479,15797
627,15944
810,16020
728,16054
580,16202
500,16395
499,16603
579,16797
727,16944
799,16974
699,16974
600,16975
508,17013
437,17083
399,17175
400,17387
462,17450
875,17450
875,17442
975,17442
975,17450
1387,17450
1450,17387
1450,17175
1412,17083
1341,17013
1250,16975
1322,16945
1469,16797
1549,16604
1550,16396
1550,19675
1450,19675
1450,17824
1450,17612
1387,17550
975,17550
975,17962
1037,18025
1150,18025
1249,18024
1341,17986
1412,17916
1450,17824
1450,19675
875,19675
875,17962
875,17550
462,17550
400,17612
399,17824
437,17916
508,17986
600,18024
699,18025
812,18025
875,17962
875,19675
300,19675
300,10300
9650,10300
9650,19675
" /> 
</g>
<g style="fill:#FFFFFF; fill-opacity:0.0; 
stroke:#FFFFFF; stroke-width:39.3701; stroke-opacity:1; 
stroke-linecap:round; stroke-linejoin:round;">
</g>
<g style="fill:#FFFFFF; fill-opacity:1.0; 
stroke:#FFFFFF; stroke-width:39.3701; stroke-opacity:1; 
stroke-linecap:round; stroke-linejoin:round;">
<circle cx="4475" cy="13250" r="105.315" /> 
<circle cx="6225" cy="13250" r="105.315" /> 
<circle cx="6725" cy="16000" r="105.315" /> 
<circle cx="4475" cy="16000" r="105.315" /> 
<circle cx="6725" cy="15500" r="105.315" /> 
<circle cx="6725" cy="5000" r="105.315" /> 
<circle cx="5725" cy="7250" r="105.315" /> 
<circle cx="2975" cy="7750" r="105.315" /> 
<circle cx="4225" cy="3250" r="105.315" /> 
<circle cx="5475" cy="13750" r="105.315" /> 
<circle cx="4475" cy="13750" r="105.315" /> 
<circle cx="5475" cy="17000" r="105.315" /> 
<circle cx="2225" cy="12250" r="105.315" /> 
<circle cx="2975" cy="12750" r="105.315" /> 
<circle cx="4725" cy="5750" r="105.315" /> 
<circle cx="5725" cy="5250" r="105.315" /> 
<circle cx="5225" cy="4250" r="105.315" /> 
<circle cx="4225" cy="4750" r="105.315" /> 
<circle cx="1725" cy="4500" r="105.315" /> 
<circle cx="5475" cy="1750" r="105.315" /> 
<circle cx="8225" cy="5500" r="105.315" /> 
<circle cx="4475" cy="8250" r="105.315" /> 
<circle cx="7725" cy="15500" r="105.315" /> 
<circle cx="7975" cy="12500" r="105.315" /> 
<circle cx="6475" cy="14000" r="105.315" /> 
<circle cx="4075" cy="15600" r="105.315" /> 
<circle cx="8975" cy="12000" r="140.315" /> 
<circle cx="8975" cy="11000" r="140.315" /> 
<circle cx="7475" cy="9050" r="140.315" /> 
<circle cx="6475" cy="8950" r="140.315" /> 
<circle cx="5475" cy="9050" r="140.315" /> 
<circle cx="4475" cy="8950" r="140.315" /> 
<circle cx="3475" cy="9050" r="140.315" /> 
<circle cx="2475" cy="8950" r="140.315" /> 
<circle cx="8425" cy="19000" r="140.315" /> 
<circle cx="8525" cy="18000" r="140.315" /> 
<circle cx="8425" cy="17000" r="140.315" /> 
<circle cx="8525" cy="16000" r="140.315" /> 
<circle cx="8425" cy="15000" r="140.315" /> 
<circle cx="8525" cy="14000" r="140.315" /> 
<circle cx="925" cy="17500" r="140.315" /> 
<circle cx="1025" cy="16500" r="140.315" /> 
<circle cx="925" cy="15500" r="140.315" /> 
<circle cx="1025" cy="14500" r="140.315" /> 
<circle cx="925" cy="13500" r="140.315" /> 
<circle cx="1025" cy="12500" r="140.315" /> 
<circle cx="975" cy="10950" r="140.315" /> 
<circle cx="1975" cy="11050" r="140.315" /> 
<circle cx="2975" cy="10950" r="140.315" /> 
<circle cx="2475" cy="19050" r="180.315" /> 
<circle cx="2475" cy="18050" r="180.315" /> 
<circle cx="3475" cy="18950" r="180.315" /> 
<circle cx="3475" cy="17950" r="180.315" /> 
<circle cx="4475" cy="19050" r="180.315" /> 
<circle cx="4475" cy="18050" r="180.315" /> 
<circle cx="5475" cy="18950" r="180.315" /> 
<circle cx="5475" cy="17950" r="180.315" /> 
<circle cx="6475" cy="19050" r="180.315" /> 
<circle cx="6475" cy="18050" r="180.315" /> 
<circle cx="4975" cy="12050" r="180.315" /> 
<circle cx="4975" cy="11050" r="180.315" /> 
<circle cx="5975" cy="11950" r="180.315" /> 
<circle cx="5975" cy="10950" r="180.315" /> 
<circle cx="6975" cy="12050" r="180.315" /> 
<circle cx="6975" cy="11050" r="180.315" /> 
</g> 
</svg>
