<?xml version="1.0" standalone="no"?>
 <!DOCTYPE svg PUBLIC "-//W3C//DTD SVG 1.1//EN" 
 "http://www.w3.org/Graphics/SVG/1.1/DTD/svg11.dtd"> 
<svg xmlns="http://www.w3.org/2000/svg" version="1.1" 
    width="3.00736cm" height="5.07238cm" viewBox="0 0 11840 19970 ">
<title>SVG Picture created as HallStepMicro-Edge_Cuts.svg date 2013/10/04 10:50:10 </title>
  <desc>Picture generated by PCBNEW </desc>
<g style="fill:#000000; fill-opacity:1;stroke:#000000; stroke-opacity:1;
stroke-linecap:round; stroke-linejoin:round; "
 transform="translate(0 0) scale(1 1)">
</g>
<g style="fill:#FFFF00; fill-opacity:0.0; 
stroke:#FFFF00; stroke-width:50; stroke-opacity:1; 
stroke-linecap:round; stroke-linejoin:round;">
<path d="M8475 10000
L8475 9950
" />
<path d="M9925 10000
L8475 10000
" />
<path d="M9925 10050
L9925 10000
" />
<path d="M1475 10000
L1475 9950
" />
<path d="M25 10000
L1475 10000
" />
<path d="M25 10050
L25 10000
" />
<path d="M9925 2950
L9925 7050
" />
<path d="M25 7050
L1475 8500
" />
<path d="M9925 7050
L8475 8500
" />
<path d="M1475 9950
L1475 8500
" />
<path d="M8475 8500
L8475 9950
" />
<path d="M8475 1500
L9925 2950
" />
<path d="M9925 19950
L25 19950
" />
<path d="M9925 10050
L9925 19950
" />
<path d="M25 19950
L25 10050
" />
<path d="M25 2950
L25 7050
" />
<path d="M2925 50
L25 2950
" />
<path d="M7025 50
L2925 50
" />
<path d="M8475 1500
L7025 50
" />
</g> 
</svg>
