<?xml version="1.0" standalone="no"?>
 <!DOCTYPE svg PUBLIC "-//W3C//DTD SVG 1.1//EN" 
 "http://www.w3.org/Graphics/SVG/1.1/DTD/svg11.dtd"> 
<svg xmlns="http://www.w3.org/2000/svg" version="1.1" 
    width="3.00736cm" height="5.07238cm" viewBox="0 0 11840 19970 ">
<title>SVG Picture created as HallStepMicro-F_SilkS.svg date 2013/10/04 10:50:10 </title>
  <desc>Picture generated by PCBNEW </desc>
<g style="fill:#000000; fill-opacity:1;stroke:#000000; stroke-opacity:1;
stroke-linecap:round; stroke-linejoin:round; "
 transform="translate(0 0) scale(1 1)">
</g>
<g style="fill:#00A0A0; fill-opacity:0.0; 
stroke:#00A0A0; stroke-width:78.7402; stroke-opacity:1; 
stroke-linecap:round; stroke-linejoin:round;">
<path d="M1725 10000
L8225 10000
" />
<circle cx="4975" cy="5000" r="4800" /> 
</g>
<g style="fill:#00A0A0; fill-opacity:0.0; 
stroke:#00A0A0; stroke-width:80; stroke-opacity:1; 
stroke-linecap:round; stroke-linejoin:round;">
<path d="M2263 16661
L2263 16261
" />
<path d="M2263 16452
L2491 16452
" />
<path d="M2491 16661
L2491 16261
" />
<path d="M2853 16661
L2853 16452
L2834 16414
L2796 16395
L2720 16395
L2682 16414
" />
<path d="M2853 16642
L2815 16661
L2720 16661
L2682 16642
L2663 16604
L2663 16566
L2682 16528
L2720 16509
L2815 16509
L2853 16490
" />
<path d="M3101 16661
L3063 16642
L3044 16604
L3044 16261
" />
<path d="M3310 16661
L3272 16642
L3253 16604
L3253 16261
" />
<path d="M3444 16642
L3501 16661
L3596 16661
L3634 16642
L3653 16623
L3672 16585
L3672 16547
L3653 16509
L3634 16490
L3596 16471
L3520 16452
L3482 16433
L3463 16414
L3444 16376
L3444 16338
L3463 16300
L3482 16280
L3520 16261
L3615 16261
L3672 16280
" />
<path d="M3786 16395
L3939 16395
" />
<path d="M3844 16261
L3844 16604
L3863 16642
L3901 16661
L3939 16661
" />
<path d="M4225 16642
L4186 16661
L4110 16661
L4072 16642
L4053 16604
L4053 16452
L4072 16414
L4110 16395
L4186 16395
L4225 16414
L4244 16452
L4244 16490
L4053 16528
" />
<path d="M4415 16395
L4415 16795
" />
<path d="M4415 16414
L4453 16395
L4529 16395
L4567 16414
L4586 16433
L4605 16471
L4605 16585
L4586 16623
L4567 16642
L4529 16661
L4453 16661
L4415 16642
" />
<path d="M4777 16661
L4777 16261
L4910 16547
L5044 16261
L5044 16661
" />
<path d="M5234 16661
L5234 16395
" />
<path d="M5234 16261
L5215 16280
L5234 16300
L5253 16280
L5234 16261
L5234 16300
" />
<path d="M5596 16642
L5558 16661
L5482 16661
L5444 16642
L5425 16623
L5405 16585
L5405 16471
L5425 16433
L5444 16414
L5482 16395
L5558 16395
L5596 16414
" />
<path d="M5767 16661
L5767 16395
" />
<path d="M5767 16471
L5786 16433
L5805 16414
L5844 16395
L5882 16395
" />
<path d="M6072 16661
L6034 16642
L6015 16623
L5996 16585
L5996 16471
L6015 16433
L6034 16414
L6072 16395
L6129 16395
L6167 16414
L6186 16433
L6205 16471
L6205 16585
L6186 16623
L6167 16642
L6129 16661
L6072 16661
" />
<path d="M2717 1373
L2698 1392
L2641 1411
L2603 1411
L2546 1392
L2508 1354
L2489 1316
L2470 1240
L2470 1183
L2489 1107
L2508 1069
L2546 1030
L2603 1011
L2641 1011
L2698 1030
L2717 1050
" />
<path d="M2946 1411
L2908 1392
L2889 1354
L2889 1011
" />
<path d="M3155 1411
L3117 1392
L3098 1373
L3079 1335
L3079 1221
L3098 1183
L3117 1164
L3155 1145
L3213 1145
L3251 1164
L3270 1183
L3289 1221
L3289 1335
L3270 1373
L3251 1392
L3213 1411
L3155 1411
" />
<path d="M3403 1145
L3555 1145
" />
<path d="M3460 1011
L3460 1354
L3479 1392
L3517 1411
L3555 1411
" />
<path d="M3689 1411
L3689 1011
" />
<path d="M3860 1411
L3860 1202
L3841 1164
L3803 1145
L3746 1145
L3708 1164
L3689 1183
" />
<path d="M4184 1202
L4241 1221
L4260 1240
L4279 1278
L4279 1335
L4260 1373
L4241 1392
L4203 1411
L4051 1411
L4051 1011
L4184 1011
L4222 1030
L4241 1050
L4260 1088
L4260 1126
L4241 1164
L4222 1183
L4184 1202
L4051 1202
" />
<path d="M4508 1411
L4470 1392
L4451 1373
L4432 1335
L4432 1221
L4451 1183
L4470 1164
L4508 1145
L4565 1145
L4603 1164
L4622 1183
L4641 1221
L4641 1335
L4622 1373
L4603 1392
L4565 1411
L4508 1411
" />
<path d="M4755 1145
L4908 1145
" />
<path d="M4813 1011
L4813 1354
L4832 1392
L4870 1411
L4908 1411
" />
<path d="M5346 1411
L5346 1011
L5441 1011
L5498 1030
L5536 1069
L5555 1107
L5575 1183
L5575 1240
L5555 1316
L5536 1354
L5498 1392
L5441 1411
L5346 1411
" />
<path d="M5898 1392
L5860 1411
L5784 1411
L5746 1392
L5727 1354
L5727 1202
L5746 1164
L5784 1145
L5860 1145
L5898 1164
L5917 1202
L5917 1240
L5727 1278
" />
<path d="M6070 1392
L6108 1411
L6184 1411
L6222 1392
L6241 1354
L6241 1335
L6222 1297
L6184 1278
L6127 1278
L6089 1259
L6070 1221
L6070 1202
L6089 1164
L6127 1145
L6184 1145
L6222 1164
" />
<path d="M6413 1411
L6413 1145
" />
<path d="M6413 1011
L6394 1030
L6413 1050
L6432 1030
L6413 1011
L6413 1050
" />
<path d="M6775 1145
L6775 1469
L6755 1507
L6736 1526
L6698 1545
L6641 1545
L6603 1526
" />
<path d="M6775 1392
L6736 1411
L6660 1411
L6622 1392
L6603 1373
L6584 1335
L6584 1221
L6603 1183
L6622 1164
L6660 1145
L6736 1145
L6775 1164
" />
<path d="M6965 1145
L6965 1411
" />
<path d="M6965 1183
L6984 1164
L7022 1145
L7079 1145
L7117 1164
L7136 1202
L7136 1411
" />
<path d="M7308 1392
L7346 1411
L7422 1411
L7460 1392
L7479 1354
L7479 1335
L7460 1297
L7422 1278
L7365 1278
L7327 1259
L7308 1221
L7308 1202
L7327 1164
L7365 1145
L7422 1145
L7460 1164
" />
</g>
<g style="fill:#00A0A0; fill-opacity:0.0; 
stroke:#00A0A0; stroke-width:78.7402; stroke-opacity:1; 
stroke-linecap:round; stroke-linejoin:round;">
<path d="M4975 5000
L1475 1500
" />
<path d="M4975 5000
L1475 8500
" />
<path d="M4975 5000
L8475 8500
" />
<path d="M4975 5000
L8475 1500
" />
<circle cx="4975" cy="5000" r="500" /> 
<circle cx="4975" cy="5000" r="2500" /> 
<circle cx="4975" cy="5000" r="4000" /> 
</g>
<g style="fill:#00A0A0; fill-opacity:0.0; 
stroke:#00A0A0; stroke-width:50; stroke-opacity:1; 
stroke-linecap:round; stroke-linejoin:round;">
<path d="M2836 14189
L2436 14189
" />
<path d="M2798 13717
L2817 13739
L2836 13803
L2836 13846
L2817 13910
L2779 13953
L2741 13974
L2665 13996
L2608 13996
L2532 13974
L2494 13953
L2455 13910
L2436 13846
L2436 13803
L2455 13739
L2475 13717
" />
<path d="M2836 13289
L2836 13546
" />
<path d="M2836 13417
L2436 13417
L2494 13460
L2532 13503
L2551 13546
" />
<path d="M3522 15807
L3522 15616
" />
<path d="M3636 15845
L3236 15711
L3636 15578
" />
<path d="M3236 15502
L3236 15273
" />
<path d="M3636 15388
L3236 15388
" />
<path d="M3236 15197
L3236 14969
" />
<path d="M3636 15083
L3236 15083
" />
<path d="M3636 14835
L3236 14835
" />
<path d="M3636 14645
L3236 14645
L3636 14416
L3236 14416
" />
<path d="M3446 14149
L3636 14149
" />
<path d="M3236 14283
L3446 14149
L3236 14016
" />
<path d="M3408 13826
L3389 13864
L3370 13883
L3332 13902
L3313 13902
L3275 13883
L3255 13864
L3236 13826
L3236 13750
L3255 13711
L3275 13692
L3313 13673
L3332 13673
L3370 13692
L3389 13711
L3408 13750
L3408 13826
L3427 13864
L3446 13883
L3484 13902
L3560 13902
L3598 13883
L3617 13864
L3636 13826
L3636 13750
L3617 13711
L3598 13692
L3560 13673
L3484 13673
L3446 13692
L3427 13711
L3408 13750
" />
<path d="M3370 13330
L3636 13330
" />
<path d="M3217 13426
L3503 13521
L3503 13273
" />
<path d="M3522 13140
L3522 12950
" />
<path d="M3636 13178
L3236 13045
L3636 12911
" />
<path d="M3484 12778
L3484 12473
" />
<path d="M3617 12302
L3636 12245
L3636 12150
L3617 12111
L3598 12092
L3560 12073
L3522 12073
L3484 12092
L3465 12111
L3446 12150
L3427 12226
L3408 12264
L3389 12283
L3351 12302
L3313 12302
L3275 12283
L3255 12264
L3236 12226
L3236 12130
L3255 12073
" />
<path d="M3617 11921
L3636 11864
L3636 11769
L3617 11730
L3598 11711
L3560 11692
L3522 11692
L3484 11711
L3465 11730
L3446 11769
L3427 11845
L3408 11883
L3389 11902
L3351 11921
L3313 11921
L3275 11902
L3255 11883
L3236 11845
L3236 11750
L3255 11692
" />
</g>
<g style="fill:#00A0A0; fill-opacity:0.0; 
stroke:#00A0A0; stroke-width:43; stroke-opacity:1; 
stroke-linecap:round; stroke-linejoin:round;">
<path d="M7929 12228
L7835 12294
" />
<path d="M7929 12341
L7732 12341
L7732 12265
L7742 12247
L7751 12237
L7770 12228
L7798 12228
L7817 12237
L7826 12247
L7835 12265
L7835 12341
" />
<path d="M7929 12031
L7835 12097
" />
<path d="M7929 12144
L7732 12144
L7732 12068
L7742 12050
L7751 12040
L7770 12031
L7798 12031
L7817 12040
L7826 12050
L7835 12068
L7835 12144
" />
<path d="M7826 11947
L7826 11881
" />
<path d="M7929 11853
L7929 11947
L7732 11947
L7732 11853
" />
<path d="M7920 11778
L7929 11750
L7929 11703
L7920 11684
L7910 11674
L7892 11665
L7873 11665
L7854 11674
L7845 11684
L7835 11703
L7826 11740
L7817 11759
L7807 11768
L7789 11778
L7770 11778
L7751 11768
L7742 11759
L7732 11740
L7732 11693
L7742 11665
" />
<path d="M7826 11581
L7826 11515
" />
<path d="M7929 11487
L7929 11581
L7732 11581
L7732 11487
" />
<path d="M7732 11431
L7732 11318
" />
<path d="M7929 11374
L7732 11374
" />
<path d="M7929 11149
L7929 11262
" />
<path d="M7929 11205
L7732 11205
L7760 11224
L7779 11243
L7789 11262
" />
<path d="M8007 11801
L8007 11895
L8101 11904
L8092 11895
L8082 11876
L8082 11829
L8092 11810
L8101 11801
L8120 11792
L8167 11792
L8185 11801
L8195 11810
L8204 11829
L8204 11876
L8195 11895
L8185 11904
" />
<path d="M8204 11707
L8007 11707
" />
<path d="M8204 11595
L8092 11679
" />
<path d="M8007 11595
L8120 11707
" />
<path d="M3660 2636
L3670 2645
L3679 2673
L3679 2692
L3670 2720
L3651 2739
L3632 2748
L3595 2757
L3567 2757
L3529 2748
L3510 2739
L3492 2720
L3482 2692
L3482 2673
L3492 2645
L3501 2636
" />
<path d="M3679 2551
L3482 2551
" />
<path d="M3576 2551
L3576 2439
" />
<path d="M3679 2439
L3482 2439
" />
<path d="M3548 2260
L3679 2260
" />
<path d="M3473 2307
L3614 2354
L3614 2232
" />
<path d="M3954 2626
L3954 2739
" />
<path d="M3954 2682
L3757 2682
L3785 2701
L3804 2720
L3814 2739
" />
<path d="M3757 2504
L3757 2485
L3767 2467
L3776 2457
L3795 2448
L3832 2439
L3879 2439
L3917 2448
L3935 2457
L3945 2467
L3954 2485
L3954 2504
L3945 2523
L3935 2532
L3917 2542
L3879 2551
L3832 2551
L3795 2542
L3776 2532
L3767 2523
L3757 2504
" />
<path d="M3823 2354
L4020 2354
" />
<path d="M3832 2354
L3823 2335
L3823 2298
L3832 2279
L3842 2270
L3860 2260
L3917 2260
L3935 2270
L3945 2279
L3954 2298
L3954 2335
L3945 2354
" />
<path d="M2338 6435
L2329 6445
L2301 6454
L2282 6454
L2254 6445
L2235 6426
L2226 6407
L2217 6370
L2217 6342
L2226 6304
L2235 6285
L2254 6267
L2282 6257
L2301 6257
L2329 6267
L2338 6276
" />
<path d="M2423 6454
L2423 6257
" />
<path d="M2423 6351
L2535 6351
" />
<path d="M2535 6454
L2535 6257
" />
<path d="M2611 6257
L2732 6257
L2667 6332
L2695 6332
L2714 6342
L2723 6351
L2732 6370
L2732 6417
L2723 6435
L2714 6445
L2695 6454
L2639 6454
L2620 6445
L2611 6435
" />
<path d="M2348 6179
L2235 6179
" />
<path d="M2292 6179
L2292 5982
L2273 6010
L2254 6029
L2235 6039
" />
<path d="M2470 5982
L2489 5982
L2507 5992
L2517 6001
L2526 6020
L2535 6057
L2535 6104
L2526 6142
L2517 6160
L2507 6170
L2489 6179
L2470 6179
L2451 6170
L2442 6160
L2432 6142
L2423 6104
L2423 6057
L2432 6020
L2442 6001
L2451 5992
L2470 5982
" />
<path d="M2620 6048
L2620 6245
" />
<path d="M2620 6057
L2639 6048
L2676 6048
L2695 6057
L2704 6067
L2714 6085
L2714 6142
L2704 6160
L2695 6170
L2676 6179
L2639 6179
L2620 6170
" />
<path d="M6410 7636
L6420 7645
L6429 7673
L6429 7692
L6420 7720
L6401 7739
L6382 7748
L6345 7757
L6317 7757
L6279 7748
L6260 7739
L6242 7720
L6232 7692
L6232 7673
L6242 7645
L6251 7636
" />
<path d="M6429 7551
L6232 7551
" />
<path d="M6326 7551
L6326 7439
" />
<path d="M6429 7439
L6232 7439
" />
<path d="M6251 7354
L6242 7345
L6232 7326
L6232 7279
L6242 7260
L6251 7251
L6270 7242
L6289 7242
L6317 7251
L6429 7363
L6429 7242
" />
<path d="M6154 7626
L6154 7739
" />
<path d="M6154 7682
L5957 7682
L5985 7701
L6004 7720
L6014 7739
" />
<path d="M5957 7504
L5957 7485
L5967 7467
L5976 7457
L5995 7448
L6032 7439
L6079 7439
L6117 7448
L6135 7457
L6145 7467
L6154 7485
L6154 7504
L6145 7523
L6135 7532
L6117 7542
L6079 7551
L6032 7551
L5995 7542
L5976 7532
L5967 7523
L5957 7504
" />
<path d="M6023 7354
L6220 7354
" />
<path d="M6032 7354
L6023 7335
L6023 7298
L6032 7279
L6042 7270
L6060 7260
L6117 7260
L6135 7270
L6145 7279
L6154 7298
L6154 7335
L6145 7354
" />
<path d="M7338 3685
L7329 3695
L7301 3704
L7282 3704
L7254 3695
L7235 3676
L7226 3657
L7217 3620
L7217 3592
L7226 3554
L7235 3535
L7254 3517
L7282 3507
L7301 3507
L7329 3517
L7338 3526
" />
<path d="M7423 3704
L7423 3507
" />
<path d="M7423 3601
L7535 3601
" />
<path d="M7535 3704
L7535 3507
" />
<path d="M7732 3704
L7620 3704
" />
<path d="M7676 3704
L7676 3507
L7657 3535
L7639 3554
L7620 3564
" />
<path d="M7348 3979
L7235 3979
" />
<path d="M7292 3979
L7292 3782
L7273 3810
L7254 3829
L7235 3839
" />
<path d="M7470 3782
L7489 3782
L7507 3792
L7517 3801
L7526 3820
L7535 3857
L7535 3904
L7526 3942
L7517 3960
L7507 3970
L7489 3979
L7470 3979
L7451 3970
L7442 3960
L7432 3942
L7423 3904
L7423 3857
L7432 3820
L7442 3801
L7451 3792
L7470 3782
" />
<path d="M7620 3848
L7620 4045
" />
<path d="M7620 3857
L7639 3848
L7676 3848
L7695 3857
L7704 3867
L7714 3885
L7714 3942
L7704 3960
L7695 3970
L7676 3979
L7639 3979
L7620 3970
" />
<path d="M6410 2631
L6420 2640
L6429 2668
L6429 2687
L6420 2715
L6401 2734
L6382 2743
L6345 2753
L6317 2753
L6279 2743
L6260 2734
L6242 2715
L6232 2687
L6232 2668
L6242 2640
L6251 2631
" />
<path d="M6429 2546
L6232 2546
L6232 2500
L6242 2471
L6260 2453
L6279 2443
L6317 2434
L6345 2434
L6382 2443
L6401 2453
L6420 2471
L6429 2500
L6429 2546
" />
<path d="M6298 2265
L6429 2265
" />
<path d="M6223 2312
L6364 2359
L6364 2237
" />
<path d="M5957 2739
L5957 2720
L5967 2701
L5976 2692
L5995 2682
L6032 2673
L6079 2673
L6117 2682
L6135 2692
L6145 2701
L6154 2720
L6154 2739
L6145 2757
L6135 2767
L6117 2776
L6079 2786
L6032 2786
L5995 2776
L5976 2767
L5967 2757
L5957 2739
" />
<path d="M6135 2589
L6145 2579
L6154 2589
L6145 2598
L6135 2589
L6154 2589
" />
<path d="M6154 2392
L6154 2504
" />
<path d="M6154 2448
L5957 2448
L5985 2467
L6004 2485
L6014 2504
" />
<path d="M6023 2223
L6154 2223
" />
<path d="M6023 2307
L6126 2307
L6145 2298
L6154 2279
L6154 2251
L6145 2232
L6135 2223
" />
<path d="M6929 15251
L6835 15317
" />
<path d="M6929 15364
L6732 15364
L6732 15289
L6742 15270
L6751 15261
L6770 15251
L6798 15251
L6817 15261
L6826 15270
L6835 15289
L6835 15364
" />
<path d="M6929 15167
L6732 15167
L6732 15092
L6742 15073
L6751 15064
L6770 15054
L6798 15054
L6817 15064
L6826 15073
L6835 15092
L6835 15167
" />
<path d="M6929 14970
L6732 14970
" />
<path d="M6826 14970
L6826 14857
" />
<path d="M6929 14857
L6732 14857
" />
<path d="M6873 14773
L6873 14679
" />
<path d="M6929 14792
L6732 14726
L6929 14660
" />
<path d="M6920 14604
L6929 14576
L6929 14529
L6920 14510
L6910 14501
L6892 14492
L6873 14492
L6854 14501
L6845 14510
L6835 14529
L6826 14567
L6817 14585
L6807 14595
L6789 14604
L6770 14604
L6751 14595
L6742 14585
L6732 14567
L6732 14520
L6742 14492
" />
<path d="M6826 14407
L6826 14341
" />
<path d="M6929 14313
L6929 14407
L6732 14407
L6732 14313
" />
<path d="M6929 14126
L6929 14238
" />
<path d="M6929 14182
L6732 14182
L6760 14201
L6779 14219
L6789 14238
" />
<path d="M6457 14801
L6457 14895
L6551 14904
L6542 14895
L6532 14876
L6532 14829
L6542 14810
L6551 14801
L6570 14792
L6617 14792
L6635 14801
L6645 14810
L6654 14829
L6654 14876
L6645 14895
L6635 14904
" />
<path d="M6654 14707
L6457 14707
" />
<path d="M6654 14595
L6542 14679
" />
<path d="M6457 14595
L6570 14707
" />
<path d="M7679 16686
L7585 16751
" />
<path d="M7679 16798
L7482 16798
L7482 16723
L7492 16704
L7501 16695
L7520 16686
L7548 16686
L7567 16695
L7576 16704
L7585 16723
L7585 16798
" />
<path d="M7679 16601
L7482 16601
L7623 16536
L7482 16470
L7679 16470
" />
<path d="M7482 16339
L7482 16301
L7492 16282
L7510 16264
L7548 16254
L7614 16254
L7651 16264
L7670 16282
L7679 16301
L7679 16339
L7670 16357
L7651 16376
L7614 16386
L7548 16386
L7510 16376
L7492 16357
L7482 16339
" />
<path d="M7679 16170
L7482 16170
L7482 16123
L7492 16095
L7510 16076
L7529 16067
L7567 16057
L7595 16057
L7632 16067
L7651 16076
L7670 16095
L7679 16123
L7679 16170
" />
<path d="M7576 15973
L7576 15907
" />
<path d="M7679 15879
L7679 15973
L7482 15973
L7482 15879
" />
<path d="M7679 15691
L7679 15804
" />
<path d="M7679 15748
L7482 15748
L7510 15766
L7529 15785
L7539 15804
" />
<path d="M7207 16301
L7207 16395
L7301 16404
L7292 16395
L7282 16376
L7282 16329
L7292 16310
L7301 16301
L7320 16292
L7367 16292
L7385 16301
L7395 16310
L7404 16329
L7404 16376
L7395 16395
L7385 16404
" />
<path d="M7404 16207
L7207 16207
" />
<path d="M7404 16095
L7292 16179
" />
<path d="M7207 16095
L7320 16207
" />
<path d="M7429 18828
L7335 18894
" />
<path d="M7429 18940
L7232 18940
L7232 18865
L7242 18847
L7251 18837
L7270 18828
L7298 18828
L7317 18837
L7326 18847
L7335 18865
L7335 18940
" />
<path d="M7326 18678
L7335 18650
L7345 18640
L7364 18631
L7392 18631
L7410 18640
L7420 18650
L7429 18668
L7429 18743
L7232 18743
L7232 18678
L7242 18659
L7251 18650
L7270 18640
L7289 18640
L7307 18650
L7317 18659
L7326 18678
L7326 18743
" />
<path d="M7429 18434
L7335 18500
" />
<path d="M7429 18546
L7232 18546
L7232 18471
L7242 18453
L7251 18443
L7270 18434
L7298 18434
L7317 18443
L7326 18453
L7335 18471
L7335 18546
" />
<path d="M7429 18349
L7232 18349
" />
<path d="M7429 18237
L7317 18321
" />
<path d="M7232 18237
L7345 18349
" />
<path d="M7429 18049
L7429 18162
" />
<path d="M7429 18106
L7232 18106
L7260 18124
L7279 18143
L7289 18162
" />
<path d="M7507 18551
L7507 18645
L7601 18654
L7592 18645
L7582 18626
L7582 18579
L7592 18560
L7601 18551
L7620 18542
L7667 18542
L7685 18551
L7695 18560
L7704 18579
L7704 18626
L7695 18645
L7685 18654
" />
<path d="M7704 18457
L7507 18457
" />
<path d="M7704 18345
L7592 18429
" />
<path d="M7507 18345
L7620 18457
" />
<path d="M7429 15073
L7335 15139
" />
<path d="M7429 15186
L7232 15186
L7232 15111
L7242 15092
L7251 15083
L7270 15073
L7298 15073
L7317 15083
L7326 15092
L7335 15111
L7335 15186
" />
<path d="M7326 14989
L7326 14923
" />
<path d="M7429 14895
L7429 14989
L7232 14989
L7232 14895
" />
<path d="M7429 14810
L7232 14810
L7429 14698
L7232 14698
" />
<path d="M7326 14538
L7335 14510
L7345 14501
L7364 14492
L7392 14492
L7410 14501
L7420 14510
L7429 14529
L7429 14604
L7232 14604
L7232 14538
L7242 14520
L7251 14510
L7270 14501
L7289 14501
L7307 14510
L7317 14520
L7326 14538
L7326 14604
" />
<path d="M7429 14304
L7429 14416
" />
<path d="M7429 14360
L7232 14360
L7260 14379
L7279 14398
L7289 14416
" />
<path d="M7507 14801
L7507 14895
L7601 14904
L7592 14895
L7582 14876
L7582 14829
L7592 14810
L7601 14801
L7620 14792
L7667 14792
L7685 14801
L7695 14810
L7704 14829
L7704 14876
L7695 14895
L7685 14904
" />
<path d="M7704 14707
L7507 14707
" />
<path d="M7704 14595
L7592 14679
" />
<path d="M7507 14595
L7620 14707
" />
<path d="M2343 3685
L2334 3695
L2306 3704
L2287 3704
L2259 3695
L2240 3676
L2231 3657
L2221 3620
L2221 3592
L2231 3554
L2240 3535
L2259 3517
L2287 3507
L2306 3507
L2334 3517
L2343 3526
" />
<path d="M2428 3704
L2428 3507
L2475 3507
L2503 3517
L2521 3535
L2531 3554
L2540 3592
L2540 3620
L2531 3657
L2521 3676
L2503 3695
L2475 3704
L2428 3704
" />
<path d="M2606 3507
L2728 3507
L2662 3582
L2690 3582
L2709 3592
L2718 3601
L2728 3620
L2728 3667
L2718 3685
L2709 3695
L2690 3704
L2634 3704
L2615 3695
L2606 3685
" />
<path d="M2235 3782
L2254 3782
L2273 3792
L2282 3801
L2292 3820
L2301 3857
L2301 3904
L2292 3942
L2282 3960
L2273 3970
L2254 3979
L2235 3979
L2217 3970
L2207 3960
L2198 3942
L2188 3904
L2188 3857
L2198 3820
L2207 3801
L2217 3792
L2235 3782
" />
<path d="M2385 3960
L2395 3970
L2385 3979
L2376 3970
L2385 3960
L2385 3979
" />
<path d="M2582 3979
L2470 3979
" />
<path d="M2526 3979
L2526 3782
L2507 3810
L2489 3829
L2470 3839
" />
<path d="M2751 3848
L2751 3979
" />
<path d="M2667 3848
L2667 3951
L2676 3970
L2695 3979
L2723 3979
L2742 3970
L2751 3960
" />
<path d="M3660 7631
L3670 7640
L3679 7668
L3679 7687
L3670 7715
L3651 7734
L3632 7743
L3595 7753
L3567 7753
L3529 7743
L3510 7734
L3492 7715
L3482 7687
L3482 7668
L3492 7640
L3501 7631
" />
<path d="M3679 7546
L3482 7546
L3482 7500
L3492 7471
L3510 7453
L3529 7443
L3567 7434
L3595 7434
L3632 7443
L3651 7453
L3670 7471
L3679 7500
L3679 7546
" />
<path d="M3501 7359
L3492 7349
L3482 7331
L3482 7284
L3492 7265
L3501 7256
L3520 7246
L3539 7246
L3567 7256
L3679 7368
L3679 7246
" />
<path d="M3757 7739
L3757 7720
L3767 7701
L3776 7692
L3795 7682
L3832 7673
L3879 7673
L3917 7682
L3935 7692
L3945 7701
L3954 7720
L3954 7739
L3945 7757
L3935 7767
L3917 7776
L3879 7786
L3832 7786
L3795 7776
L3776 7767
L3767 7757
L3757 7739
" />
<path d="M3935 7589
L3945 7579
L3954 7589
L3945 7598
L3935 7589
L3954 7589
" />
<path d="M3954 7392
L3954 7504
" />
<path d="M3954 7448
L3757 7448
L3785 7467
L3804 7485
L3814 7504
" />
<path d="M3823 7223
L3954 7223
" />
<path d="M3823 7307
L3926 7307
L3945 7298
L3954 7279
L3954 7251
L3945 7232
L3935 7223
" />
<path d="M7343 6435
L7334 6445
L7306 6454
L7287 6454
L7259 6445
L7240 6426
L7231 6407
L7221 6370
L7221 6342
L7231 6304
L7240 6285
L7259 6267
L7287 6257
L7306 6257
L7334 6267
L7343 6276
" />
<path d="M7428 6454
L7428 6257
L7475 6257
L7503 6267
L7521 6285
L7531 6304
L7540 6342
L7540 6370
L7531 6407
L7521 6426
L7503 6445
L7475 6454
L7428 6454
" />
<path d="M7728 6454
L7615 6454
" />
<path d="M7672 6454
L7672 6257
L7653 6285
L7634 6304
L7615 6314
" />
<path d="M7235 5982
L7254 5982
L7273 5992
L7282 6001
L7292 6020
L7301 6057
L7301 6104
L7292 6142
L7282 6160
L7273 6170
L7254 6179
L7235 6179
L7217 6170
L7207 6160
L7198 6142
L7188 6104
L7188 6057
L7198 6020
L7207 6001
L7217 5992
L7235 5982
" />
<path d="M7385 6160
L7395 6170
L7385 6179
L7376 6170
L7385 6160
L7385 6179
" />
<path d="M7582 6179
L7470 6179
" />
<path d="M7526 6179
L7526 5982
L7507 6010
L7489 6029
L7470 6039
" />
<path d="M7751 6048
L7751 6179
" />
<path d="M7667 6048
L7667 6151
L7676 6170
L7695 6179
L7723 6179
L7742 6170
L7751 6160
" />
</g>
<g style="fill:#00A0A0; fill-opacity:0.0; 
stroke:#00A0A0; stroke-width:80; stroke-opacity:1; 
stroke-linecap:round; stroke-linejoin:round;">
<path d="M7953 13161
L7820 12971
" />
<path d="M7725 13161
L7725 12761
L7877 12761
L7915 12780
L7934 12800
L7953 12838
L7953 12895
L7934 12933
L7915 12952
L7877 12971
L7725 12971
" />
<path d="M8125 12952
L8258 12952
" />
<path d="M8315 13161
L8125 13161
L8125 12761
L8315 12761
" />
<path d="M8467 13142
L8525 13161
L8620 13161
L8658 13142
L8677 13123
L8696 13085
L8696 13047
L8677 13009
L8658 12990
L8620 12971
L8544 12952
L8505 12933
L8486 12914
L8467 12876
L8467 12838
L8486 12800
L8505 12780
L8544 12761
L8639 12761
L8696 12780
" />
<path d="M8867 12952
L9001 12952
" />
<path d="M9058 13161
L8867 13161
L8867 12761
L9058 12761
" />
<path d="M9172 12761
L9401 12761
" />
<path d="M9286 13161
L9286 12761
" />
<path d="M9744 13161
L9515 13161
" />
<path d="M9629 13161
L9629 12761
L9591 12819
L9553 12857
L9515 12876
" />
</g>
<g style="fill:#00A0A0; fill-opacity:0.0; 
stroke:#00A0A0; stroke-width:47; stroke-opacity:1; 
stroke-linecap:round; stroke-linejoin:round;">
<path d="M4546 3071
L4546 3314
L4560 3342
L4575 3357
L4603 3371
L4660 3371
L4689 3357
L4703 3342
L4717 3314
L4717 3071
" />
<path d="M4860 3371
L4860 3071
" />
<path d="M4860 3214
L5032 3214
" />
<path d="M5032 3371
L5032 3071
" />
<path d="M5303 3371
L5303 3214
L5289 3185
L5260 3171
L5203 3171
L5175 3185
" />
<path d="M5303 3357
L5275 3371
L5203 3371
L5175 3357
L5160 3328
L5160 3300
L5175 3271
L5203 3257
L5275 3257
L5303 3242
" />
<path d="M5489 3371
L5460 3357
L5446 3328
L5446 3071
" />
<path d="M5646 3371
L5617 3357
L5603 3328
L5603 3071
" />
<path d="M5889 3171
L5889 3371
" />
<path d="M5817 3057
L5746 3271
L5932 3271
" />
</g>
<g style="fill:#00A0A0; fill-opacity:0.0; 
stroke:#00A0A0; stroke-width:39; stroke-opacity:1; 
stroke-linecap:round; stroke-linejoin:round;">
<path d="M4998 2947
L4998 2853
" />
<path d="M5054 2965
L4857 2900
L5054 2834
" />
<path d="M4857 2787
L4857 2665
L4932 2731
L4932 2703
L4942 2684
L4951 2675
L4970 2665
L5017 2665
L5035 2675
L5045 2684
L5054 2703
L5054 2759
L5045 2778
L5035 2787
" />
<path d="M4876 2590
L4867 2581
L4857 2562
L4857 2515
L4867 2496
L4876 2487
L4895 2478
L4914 2478
L4942 2487
L5054 2600
L5054 2478
" />
<path d="M5054 2290
L5054 2403
" />
<path d="M5054 2346
L4857 2346
L4885 2365
L4904 2384
L4914 2403
" />
<path d="M4857 2224
L4857 2102
L4932 2168
L4932 2140
L4942 2121
L4951 2112
L4970 2102
L5017 2102
L5035 2112
L5045 2121
L5054 2140
L5054 2196
L5045 2215
L5035 2224
" />
</g>
<g style="fill:#00A0A0; fill-opacity:0.0; 
stroke:#00A0A0; stroke-width:47; stroke-opacity:1; 
stroke-linecap:round; stroke-linejoin:round;">
<path d="M3046 5428
L3289 5428
L3317 5414
L3332 5400
L3346 5371
L3346 5314
L3332 5285
L3317 5271
L3289 5257
L3046 5257
" />
<path d="M3346 5114
L3046 5114
" />
<path d="M3189 5114
L3189 4942
" />
<path d="M3346 4942
L3046 4942
" />
<path d="M3346 4671
L3189 4671
L3160 4685
L3146 4714
L3146 4771
L3160 4799
" />
<path d="M3332 4671
L3346 4699
L3346 4771
L3332 4799
L3303 4814
L3275 4814
L3246 4799
L3232 4771
L3232 4699
L3217 4671
" />
<path d="M3346 4485
L3332 4514
L3303 4528
L3046 4528
" />
<path d="M3346 4328
L3332 4357
L3303 4371
L3046 4371
" />
<path d="M3046 4242
L3046 4057
L3160 4157
L3160 4114
L3175 4085
L3189 4071
L3217 4057
L3289 4057
L3317 4071
L3332 4085
L3346 4114
L3346 4199
L3332 4228
L3317 4242
" />
</g>
<g style="fill:#00A0A0; fill-opacity:0.0; 
stroke:#00A0A0; stroke-width:39; stroke-opacity:1; 
stroke-linecap:round; stroke-linejoin:round;">
<path d="M2077 5023
L2171 5023
" />
<path d="M2059 5079
L2124 4882
L2190 5079
" />
<path d="M2237 4882
L2359 4882
L2293 4957
L2321 4957
L2340 4967
L2349 4976
L2359 4995
L2359 5042
L2349 5060
L2340 5070
L2321 5079
L2265 5079
L2246 5070
L2237 5060
" />
<path d="M2434 4901
L2443 4892
L2462 4882
L2509 4882
L2528 4892
L2537 4901
L2546 4920
L2546 4939
L2537 4967
L2424 5079
L2546 5079
" />
<path d="M2734 5079
L2621 5079
" />
<path d="M2678 5079
L2678 4882
L2659 4910
L2640 4929
L2621 4939
" />
<path d="M2800 4882
L2922 4882
L2856 4957
L2884 4957
L2903 4967
L2912 4976
L2922 4995
L2922 5042
L2912 5060
L2903 5070
L2884 5079
L2828 5079
L2809 5070
L2800 5060
" />
</g>
<g style="fill:#00A0A0; fill-opacity:0.0; 
stroke:#00A0A0; stroke-width:47; stroke-opacity:1; 
stroke-linecap:round; stroke-linejoin:round;">
<path d="M4046 6571
L4046 6814
L4060 6842
L4075 6857
L4103 6871
L4160 6871
L4189 6857
L4203 6842
L4217 6814
L4217 6571
" />
<path d="M4360 6871
L4360 6571
" />
<path d="M4360 6714
L4532 6714
" />
<path d="M4532 6871
L4532 6571
" />
<path d="M4803 6871
L4803 6714
L4789 6685
L4760 6671
L4703 6671
L4675 6685
" />
<path d="M4803 6857
L4775 6871
L4703 6871
L4675 6857
L4660 6828
L4660 6800
L4675 6771
L4703 6757
L4775 6757
L4803 6742
" />
<path d="M4989 6871
L4960 6857
L4946 6828
L4946 6571
" />
<path d="M5146 6871
L5117 6857
L5103 6828
L5103 6571
" />
<path d="M5246 6600
L5260 6585
L5289 6571
L5360 6571
L5389 6585
L5403 6600
L5417 6628
L5417 6657
L5403 6700
L5232 6871
L5417 6871
" />
</g>
<g style="fill:#00A0A0; fill-opacity:0.0; 
stroke:#00A0A0; stroke-width:39; stroke-opacity:1; 
stroke-linecap:round; stroke-linejoin:round;">
<path d="M4998 7897
L4998 7803
" />
<path d="M5054 7915
L4857 7850
L5054 7784
" />
<path d="M4857 7737
L4857 7615
L4932 7681
L4932 7653
L4942 7634
L4951 7625
L4970 7615
L5017 7615
L5035 7625
L5045 7634
L5054 7653
L5054 7709
L5045 7728
L5035 7737
" />
<path d="M4876 7540
L4867 7531
L4857 7512
L4857 7465
L4867 7446
L4876 7437
L4895 7428
L4914 7428
L4942 7437
L5054 7550
L5054 7428
" />
<path d="M5054 7240
L5054 7353
" />
<path d="M5054 7296
L4857 7296
L4885 7315
L4904 7334
L4914 7353
" />
<path d="M4857 7174
L4857 7052
L4932 7118
L4932 7090
L4942 7071
L4951 7062
L4970 7052
L5017 7052
L5035 7062
L5045 7071
L5054 7090
L5054 7146
L5045 7165
L5035 7174
" />
</g>
<g style="fill:#00A0A0; fill-opacity:0.0; 
stroke:#00A0A0; stroke-width:47; stroke-opacity:1; 
stroke-linecap:round; stroke-linejoin:round;">
<path d="M6546 6428
L6789 6428
L6817 6414
L6832 6400
L6846 6371
L6846 6314
L6832 6285
L6817 6271
L6789 6257
L6546 6257
" />
<path d="M6846 6114
L6546 6114
" />
<path d="M6689 6114
L6689 5942
" />
<path d="M6846 5942
L6546 5942
" />
<path d="M6846 5671
L6689 5671
L6660 5685
L6646 5714
L6646 5771
L6660 5799
" />
<path d="M6832 5671
L6846 5699
L6846 5771
L6832 5799
L6803 5814
L6775 5814
L6746 5799
L6732 5771
L6732 5699
L6717 5671
" />
<path d="M6846 5485
L6832 5514
L6803 5528
L6546 5528
" />
<path d="M6846 5328
L6832 5357
L6803 5371
L6546 5371
" />
<path d="M6846 5057
L6846 5228
" />
<path d="M6846 5142
L6546 5142
L6589 5171
L6617 5199
L6632 5228
" />
</g>
<g style="fill:#00A0A0; fill-opacity:0.0; 
stroke:#00A0A0; stroke-width:39; stroke-opacity:1; 
stroke-linecap:round; stroke-linejoin:round;">
<path d="M7027 5023
L7121 5023
" />
<path d="M7009 5079
L7074 4882
L7140 5079
" />
<path d="M7187 4882
L7309 4882
L7243 4957
L7271 4957
L7290 4967
L7299 4976
L7309 4995
L7309 5042
L7299 5060
L7290 5070
L7271 5079
L7215 5079
L7196 5070
L7187 5060
" />
<path d="M7384 4901
L7393 4892
L7412 4882
L7459 4882
L7478 4892
L7487 4901
L7496 4920
L7496 4939
L7487 4967
L7374 5079
L7496 5079
" />
<path d="M7684 5079
L7571 5079
" />
<path d="M7628 5079
L7628 4882
L7609 4910
L7590 4929
L7571 4939
" />
<path d="M7750 4882
L7872 4882
L7806 4957
L7834 4957
L7853 4967
L7862 4976
L7872 4995
L7872 5042
L7862 5060
L7853 5070
L7834 5079
L7778 5079
L7759 5070
L7750 5060
" />
</g>
<g style="fill:#00A0A0; fill-opacity:0.0; 
stroke:#00A0A0; stroke-width:43; stroke-opacity:1; 
stroke-linecap:round; stroke-linejoin:round;">
<path d="M5929 15026
L5835 15092
" />
<path d="M5929 15139
L5732 15139
L5732 15064
L5742 15045
L5751 15036
L5770 15026
L5798 15026
L5817 15036
L5826 15045
L5835 15064
L5835 15139
" />
<path d="M5929 14942
L5732 14942
L5732 14895
L5742 14867
L5760 14848
L5779 14839
L5817 14829
L5845 14829
L5882 14839
L5901 14848
L5920 14867
L5929 14895
L5929 14942
" />
<path d="M5929 14745
L5732 14745
" />
<path d="M5929 14538
L5835 14604
" />
<path d="M5929 14651
L5732 14651
L5732 14576
L5742 14557
L5751 14548
L5770 14538
L5798 14538
L5817 14548
L5826 14557
L5835 14576
L5835 14651
" />
<path d="M5929 14351
L5929 14463
" />
<path d="M5929 14407
L5732 14407
L5760 14426
L5779 14445
L5789 14463
" />
<path d="M6007 14900
L6007 14881
L6017 14862
L6026 14853
L6045 14843
L6082 14834
L6129 14834
L6167 14843
L6185 14853
L6195 14862
L6204 14881
L6204 14900
L6195 14918
L6185 14928
L6167 14937
L6129 14947
L6082 14947
L6045 14937
L6026 14928
L6017 14918
L6007 14900
" />
<path d="M6185 14750
L6195 14740
L6204 14750
L6195 14759
L6185 14750
L6204 14750
" />
<path d="M6007 14618
L6007 14599
L6017 14581
L6026 14571
L6045 14562
L6082 14553
L6129 14553
L6167 14562
L6185 14571
L6195 14581
L6204 14599
L6204 14618
L6195 14637
L6185 14646
L6167 14656
L6129 14665
L6082 14665
L6045 14656
L6026 14646
L6017 14637
L6007 14618
" />
</g>
<g style="fill:#00A0A0; fill-opacity:0.0; 
stroke:#00A0A0; stroke-width:80; stroke-opacity:1; 
stroke-linecap:round; stroke-linejoin:round;">
<path d="M4913 8411
L4913 8011
" />
<path d="M4913 8202
L5141 8202
" />
<path d="M5141 8411
L5141 8011
" />
<path d="M5313 8297
L5503 8297
" />
<path d="M5275 8411
L5408 8011
L5541 8411
" />
<path d="M5865 8411
L5675 8411
L5675 8011
" />
<path d="M6189 8411
L5998 8411
L5998 8011
" />
<path d="M6494 8011
L6417 8011
L6379 8030
L6360 8050
L6322 8107
L6303 8183
L6303 8335
L6322 8373
L6341 8392
L6379 8411
L6455 8411
L6494 8392
L6513 8373
L6532 8335
L6532 8240
L6513 8202
L6494 8183
L6455 8164
L6379 8164
L6341 8183
L6322 8202
L6303 8240
" />
<path d="M6779 8011
L6855 8011
L6894 8030
L6932 8069
L6951 8145
L6951 8278
L6932 8354
L6894 8392
L6855 8411
L6779 8411
L6741 8392
L6703 8354
L6684 8278
L6684 8145
L6703 8069
L6741 8030
L6779 8011
" />
<path d="M7122 8011
L7122 8335
L7141 8373
L7160 8392
L7198 8411
L7275 8411
L7313 8392
L7332 8373
L7351 8335
L7351 8011
" />
<path d="M7484 8011
L7713 8011
" />
<path d="M7598 8411
L7598 8011
" />
<path d="M8055 8411
L7827 8411
" />
<path d="M7941 8411
L7941 8011
L7903 8069
L7865 8107
L7827 8126
" />
<path d="M9386 18973
L8986 18973
L8986 18878
L9005 18821
L9044 18783
L9082 18764
L9158 18745
L9215 18745
L9291 18764
L9329 18783
L9367 18821
L9386 18878
L9386 18973
" />
<path d="M9348 18345
L9367 18364
L9386 18421
L9386 18459
L9367 18516
L9329 18554
L9291 18573
L9215 18592
L9158 18592
L9082 18573
L9044 18554
L9005 18516
L8986 18459
L8986 18421
L9005 18364
L9025 18345
" />
<path d="M9386 18173
L8986 18173
L9272 18040
L8986 17907
L9386 17907
" />
<path d="M9386 17507
L9386 17735
" />
<path d="M9386 17621
L8986 17621
L9044 17659
L9082 17697
L9101 17735
" />
<path d="M1886 18295
L1486 18295
" />
<path d="M1677 18295
L1677 18066
" />
<path d="M1886 18066
L1486 18066
" />
<path d="M1772 17895
L1772 17704
" />
<path d="M1886 17933
L1486 17799
L1886 17666
" />
<path d="M1886 17342
L1886 17533
L1486 17533
" />
<path d="M1886 17019
L1886 17209
L1486 17209
" />
<path d="M1486 16714
L1486 16790
L1505 16828
L1525 16847
L1582 16885
L1658 16904
L1810 16904
L1848 16885
L1867 16866
L1886 16828
L1886 16752
L1867 16714
L1848 16695
L1810 16676
L1715 16676
L1677 16695
L1658 16714
L1639 16752
L1639 16828
L1658 16866
L1677 16885
L1715 16904
" />
<path d="M1886 16504
L1486 16504
" />
<path d="M1886 16314
L1486 16314
L1886 16085
L1486 16085
" />
<path d="M1886 15685
L1886 15914
" />
<path d="M1886 15799
L1486 15799
L1544 15838
L1582 15876
L1601 15914
" />
<path d="M658 11892
L715 11911
L810 11911
L848 11892
L867 11873
L886 11835
L886 11797
L867 11759
L848 11740
L810 11721
L734 11702
L696 11683
L677 11664
L658 11626
L658 11588
L677 11550
L696 11530
L734 11511
L829 11511
L886 11530
" />
<path d="M1058 11702
L1191 11702
" />
<path d="M1248 11911
L1058 11911
L1058 11511
L1248 11511
" />
<path d="M1420 11911
L1420 11511
L1648 11911
L1648 11511
" />
<path d="M1820 11892
L1877 11911
L1972 11911
L2010 11892
L2029 11873
L2048 11835
L2048 11797
L2029 11759
L2010 11740
L1972 11721
L1896 11702
L1858 11683
L1839 11664
L1820 11626
L1820 11588
L1839 11550
L1858 11530
L1896 11511
L1991 11511
L2048 11530
" />
<path d="M2220 11702
L2353 11702
" />
<path d="M2410 11911
L2220 11911
L2220 11511
L2410 11511
" />
<path d="M2791 11911
L2563 11911
" />
<path d="M2677 11911
L2677 11511
L2639 11569
L2601 11607
L2563 11626
" />
<path d="M4582 17392
L4639 17411
L4734 17411
L4772 17392
L4791 17373
L4810 17335
L4810 17297
L4791 17259
L4772 17240
L4734 17221
L4658 17202
L4620 17183
L4601 17164
L4582 17126
L4582 17088
L4601 17050
L4620 17030
L4658 17011
L4753 17011
L4810 17030
" />
<path d="M4925 17011
L5153 17011
" />
<path d="M5039 17411
L5039 17011
" />
<path d="M5286 17202
L5420 17202
" />
<path d="M5477 17411
L5286 17411
L5286 17011
L5477 17011
" />
<path d="M5648 17411
L5648 17011
L5801 17011
L5839 17030
L5858 17050
L5877 17088
L5877 17145
L5858 17183
L5839 17202
L5801 17221
L5648 17221
" />
<path d="M6048 17411
L6048 17011
" />
<path d="M6239 17411
L6239 17011
L6467 17411
L6467 17011
" />
<path d="M6867 17411
L6639 17411
" />
<path d="M6753 17411
L6753 17011
L6715 17069
L6677 17107
L6639 17126
" />
<path d="M4448 12911
L4448 12511
" />
<path d="M4620 12892
L4677 12911
L4772 12911
L4810 12892
L4829 12873
L4848 12835
L4848 12797
L4829 12759
L4810 12740
L4772 12721
L4696 12702
L4658 12683
L4639 12664
L4620 12626
L4620 12588
L4639 12550
L4658 12530
L4696 12511
L4791 12511
L4848 12530
" />
<path d="M5020 12911
L5020 12511
L5172 12511
L5210 12530
L5229 12550
L5248 12588
L5248 12645
L5229 12683
L5210 12702
L5172 12721
L5020 12721
" />
<path d="M5591 12511
L5515 12511
L5477 12530
L5458 12550
L5420 12607
L5401 12683
L5401 12835
L5420 12873
L5439 12892
L5477 12911
L5553 12911
L5591 12892
L5610 12873
L5629 12835
L5629 12740
L5610 12702
L5591 12683
L5553 12664
L5477 12664
L5439 12683
L5420 12702
L5401 12740
" />
<path d="M5801 12911
L5801 12511
L5953 12511
L5991 12530
L6010 12550
L6029 12588
L6029 12645
L6010 12683
L5991 12702
L5953 12721
L5801 12721
" />
<path d="M6201 12911
L6201 12511
" />
<path d="M6391 12911
L6391 12511
L6620 12911
L6620 12511
" />
<path d="M7020 12911
L6791 12911
" />
<path d="M6905 12911
L6905 12511
L6867 12569
L6829 12607
L6791 12626
" />
</g>
<g style="fill:#00A0A0; fill-opacity:0.0; 
stroke:#00A0A0; stroke-width:43; stroke-opacity:1; 
stroke-linecap:round; stroke-linejoin:round;">
<path d="M6179 5234
L6085 5300
" />
<path d="M6179 5347
L5982 5347
L5982 5272
L5992 5253
L6001 5243
L6020 5234
L6048 5234
L6067 5243
L6076 5253
L6085 5272
L6085 5347
" />
<path d="M6179 5150
L5982 5150
L5982 5075
L5992 5056
L6001 5046
L6020 5037
L6048 5037
L6067 5046
L6076 5056
L6085 5075
L6085 5150
" />
<path d="M5982 4953
L6142 4953
L6160 4943
L6170 4934
L6179 4915
L6179 4878
L6170 4859
L6160 4849
L6142 4840
L5982 4840
" />
<path d="M6179 4643
L6179 4756
" />
<path d="M6179 4699
L5982 4699
L6010 4718
L6029 4737
L6039 4756
" />
<path d="M4740 6204
L4674 6110
" />
<path d="M4627 6204
L4627 6007
L4702 6007
L4721 6017
L4731 6026
L4740 6045
L4740 6073
L4731 6092
L4721 6101
L4702 6110
L4627 6110
" />
<path d="M4824 6204
L4824 6007
L4899 6007
L4918 6017
L4928 6026
L4937 6045
L4937 6073
L4928 6092
L4918 6101
L4899 6110
L4824 6110
" />
<path d="M5021 6007
L5021 6167
L5031 6185
L5040 6195
L5059 6204
L5096 6204
L5115 6195
L5125 6185
L5134 6167
L5134 6007
" />
<path d="M5218 6026
L5228 6017
L5247 6007
L5293 6007
L5312 6017
L5322 6026
L5331 6045
L5331 6064
L5322 6092
L5209 6204
L5331 6204
" />
<path d="M3929 5234
L3835 5300
" />
<path d="M3929 5347
L3732 5347
L3732 5272
L3742 5253
L3751 5243
L3770 5234
L3798 5234
L3817 5243
L3826 5253
L3835 5272
L3835 5347
" />
<path d="M3929 5150
L3732 5150
L3732 5075
L3742 5056
L3751 5046
L3770 5037
L3798 5037
L3817 5046
L3826 5056
L3835 5075
L3835 5150
" />
<path d="M3732 4953
L3892 4953
L3910 4943
L3920 4934
L3929 4915
L3929 4878
L3920 4859
L3910 4849
L3892 4840
L3732 4840
" />
<path d="M3732 4765
L3732 4643
L3807 4709
L3807 4681
L3817 4662
L3826 4652
L3845 4643
L3892 4643
L3910 4652
L3920 4662
L3929 4681
L3929 4737
L3920 4756
L3910 4765
" />
<path d="M4740 3954
L4674 3860
" />
<path d="M4627 3954
L4627 3757
L4702 3757
L4721 3767
L4731 3776
L4740 3795
L4740 3823
L4731 3842
L4721 3851
L4702 3860
L4627 3860
" />
<path d="M4824 3954
L4824 3757
L4899 3757
L4918 3767
L4928 3776
L4937 3795
L4937 3823
L4928 3842
L4918 3851
L4899 3860
L4824 3860
" />
<path d="M5021 3757
L5021 3917
L5031 3935
L5040 3945
L5059 3954
L5096 3954
L5115 3945
L5125 3935
L5134 3917
L5134 3757
" />
<path d="M5312 3823
L5312 3954
" />
<path d="M5265 3748
L5218 3889
L5340 3889
" />
</g>
<g style="fill:#00A0A0; fill-opacity:0.0; 
stroke:#00A0A0; stroke-width:80; stroke-opacity:1; 
stroke-linecap:round; stroke-linejoin:round;">
<path d="M2275 15650
L2275 11850
" />
<path d="M2275 11850
L3775 11850
" />
<path d="M3775 11850
L3775 15650
" />
<path d="M3775 15650
L2275 15650
" />
<path d="M2775 15650
L2775 15350
" />
<path d="M2775 15350
L3175 15350
" />
<path d="M3175 15350
L3175 15650
" />
</g>
<g style="fill:#00A0A0; fill-opacity:0.0; 
stroke:#00A0A0; stroke-width:39; stroke-opacity:1; 
stroke-linecap:round; stroke-linejoin:round;">
<circle cx="8275" cy="12400" r="50" /> 
<path d="M8275 11950
L8275 12350
" />
<path d="M8275 12350
L7675 12350
" />
<path d="M7675 12350
L7675 11950
" />
<path d="M7675 11550
L7675 11150
" />
<path d="M7675 11150
L8275 11150
" />
<path d="M8275 11150
L8275 11550
" />
<circle cx="4025" cy="3150" r="50" /> 
<path d="M4025 2700
L4025 3100
" />
<path d="M4025 3100
L3425 3100
" />
<path d="M3425 3100
L3425 2700
" />
<path d="M3425 2300
L3425 1900
" />
<path d="M3425 1900
L4025 1900
" />
<path d="M4025 1900
L4025 2300
" />
<circle cx="3125" cy="5950" r="50" /> 
<path d="M2675 5950
L3075 5950
" />
<path d="M3075 5950
L3075 6550
" />
<path d="M3075 6550
L2675 6550
" />
<path d="M2275 6550
L1875 6550
" />
<path d="M1875 6550
L1875 5950
" />
<path d="M1875 5950
L2275 5950
" />
<circle cx="5925" cy="6850" r="50" /> 
<path d="M5925 7300
L5925 6900
" />
<path d="M5925 6900
L6525 6900
" />
<path d="M6525 6900
L6525 7300
" />
<path d="M6525 7700
L6525 8100
" />
<path d="M6525 8100
L5925 8100
" />
<path d="M5925 8100
L5925 7700
" />
<circle cx="6825" cy="4050" r="50" /> 
<path d="M7275 4050
L6875 4050
" />
<path d="M6875 4050
L6875 3450
" />
<path d="M6875 3450
L7275 3450
" />
<path d="M7675 3450
L8075 3450
" />
<path d="M8075 3450
L8075 4050
" />
<path d="M8075 4050
L7675 4050
" />
<circle cx="5925" cy="1850" r="50" /> 
<path d="M5925 2300
L5925 1900
" />
<path d="M5925 1900
L6525 1900
" />
<path d="M6525 1900
L6525 2300
" />
<path d="M6525 2700
L6525 3100
" />
<path d="M6525 3100
L5925 3100
" />
<path d="M5925 3100
L5925 2700
" />
<circle cx="6425" cy="14100" r="50" /> 
<path d="M6425 14550
L6425 14150
" />
<path d="M6425 14150
L7025 14150
" />
<path d="M7025 14150
L7025 14550
" />
<path d="M7025 14950
L7025 15350
" />
<path d="M7025 15350
L6425 15350
" />
<path d="M6425 15350
L6425 14950
" />
<circle cx="7175" cy="15600" r="50" /> 
<path d="M7175 16050
L7175 15650
" />
<path d="M7175 15650
L7775 15650
" />
<path d="M7775 15650
L7775 16050
" />
<path d="M7775 16450
L7775 16850
" />
<path d="M7775 16850
L7175 16850
" />
<path d="M7175 16850
L7175 16450
" />
<circle cx="7775" cy="19150" r="50" /> 
<path d="M7775 18700
L7775 19100
" />
<path d="M7775 19100
L7175 19100
" />
<path d="M7175 19100
L7175 18700
" />
<path d="M7175 18300
L7175 17900
" />
<path d="M7175 17900
L7775 17900
" />
<path d="M7775 17900
L7775 18300
" />
<circle cx="7775" cy="15400" r="50" /> 
<path d="M7775 14950
L7775 15350
" />
<path d="M7775 15350
L7175 15350
" />
<path d="M7175 15350
L7175 14950
" />
<path d="M7175 14550
L7175 14150
" />
<path d="M7175 14150
L7775 14150
" />
<path d="M7775 14150
L7775 14550
" />
<circle cx="1825" cy="4050" r="50" /> 
<path d="M2275 4050
L1875 4050
" />
<path d="M1875 4050
L1875 3450
" />
<path d="M1875 3450
L2275 3450
" />
<path d="M2675 3450
L3075 3450
" />
<path d="M3075 3450
L3075 4050
" />
<path d="M3075 4050
L2675 4050
" />
<circle cx="4025" cy="8150" r="50" /> 
<path d="M4025 7700
L4025 8100
" />
<path d="M4025 8100
L3425 8100
" />
<path d="M3425 8100
L3425 7700
" />
<path d="M3425 7300
L3425 6900
" />
<path d="M3425 6900
L4025 6900
" />
<path d="M4025 6900
L4025 7300
" />
<circle cx="8125" cy="5950" r="50" /> 
<path d="M7675 5950
L8075 5950
" />
<path d="M8075 5950
L8075 6550
" />
<path d="M8075 6550
L7675 6550
" />
<path d="M7275 6550
L6875 6550
" />
<path d="M6875 6550
L6875 5950
" />
<path d="M6875 5950
L7275 5950
" />
</g>
<g style="fill:#00A0A0; fill-opacity:0.0; 
stroke:#00A0A0; stroke-width:120; stroke-opacity:1; 
stroke-linecap:round; stroke-linejoin:round;">
<path d="M9475 12500
L8475 12500
" />
<path d="M8475 12500
L8475 10500
" />
<path d="M8475 10500
L9475 10500
" />
<path d="M9475 10500
L9475 12500
" />
</g>
<g style="fill:#00A0A0; fill-opacity:0.0; 
stroke:#00A0A0; stroke-width:31; stroke-opacity:1; 
stroke-linecap:round; stroke-linejoin:round;">
<circle cx="4857" cy="2057" r="79" /> 
<path d="M5175 3000
L4775 3000
" />
<path d="M5175 1975
L4775 1975
" />
<path d="M4775 3000
L4775 1975
" />
<path d="M5175 1975
L5175 3000
" />
<circle cx="2032" cy="5118" r="79" /> 
<path d="M2975 4800
L2975 5200
" />
<path d="M1950 4800
L1950 5200
" />
<path d="M2975 5200
L1950 5200
" />
<path d="M1950 4800
L2975 4800
" />
<circle cx="5093" cy="7943" r="79" /> 
<path d="M4775 7000
L5175 7000
" />
<path d="M4775 8025
L5175 8025
" />
<path d="M5175 7000
L5175 8025
" />
<path d="M4775 8025
L4775 7000
" />
<circle cx="7918" cy="4882" r="79" /> 
<path d="M6975 5200
L6975 4800
" />
<path d="M8000 5200
L8000 4800
" />
<path d="M6975 4800
L8000 4800
" />
<path d="M8000 5200
L6975 5200
" />
</g>
<g style="fill:#00A0A0; fill-opacity:0.0; 
stroke:#00A0A0; stroke-width:39; stroke-opacity:1; 
stroke-linecap:round; stroke-linejoin:round;">
<circle cx="6275" cy="15400" r="50" /> 
<path d="M6275 14950
L6275 15350
" />
<path d="M6275 15350
L5675 15350
" />
<path d="M5675 15350
L5675 14950
" />
<path d="M5675 14550
L5675 14150
" />
<path d="M5675 14150
L6275 14150
" />
<path d="M6275 14150
L6275 14550
" />
</g>
<g style="fill:#00A0A0; fill-opacity:0.0; 
stroke:#00A0A0; stroke-width:120; stroke-opacity:1; 
stroke-linecap:round; stroke-linejoin:round;">
<path d="M7975 8500
L7975 9500
" />
<path d="M7975 9500
L1975 9500
" />
<path d="M1975 9500
L1975 8500
" />
<path d="M1975 8500
L7975 8500
" />
<path d="M6975 8500
L6975 9500
" />
<path d="M8975 19500
L7975 19500
" />
<path d="M7975 19500
L7975 13500
" />
<path d="M7975 13500
L8975 13500
" />
<path d="M8975 13500
L8975 19500
" />
<path d="M8975 18500
L7975 18500
" />
<path d="M1475 18000
L475 18000
" />
<path d="M475 18000
L475 12000
" />
<path d="M475 12000
L1475 12000
" />
<path d="M1475 12000
L1475 18000
" />
<path d="M1475 17000
L475 17000
" />
<path d="M475 11500
L475 10500
" />
<path d="M475 10500
L3475 10500
" />
<path d="M3475 10500
L3475 11500
" />
<path d="M3475 11500
L475 11500
" />
<path d="M1475 10500
L1475 11500
" />
<path d="M1975 17500
L6975 17500
" />
<path d="M6975 17500
L6975 19500
" />
<path d="M6975 19500
L1975 19500
" />
<path d="M1975 19500
L1975 17500
" />
</g>
<g style="fill:#00A0A0; fill-opacity:0.0; 
stroke:#00A0A0; stroke-width:80; stroke-opacity:1; 
stroke-linecap:round; stroke-linejoin:round;">
<path d="M7475 12500
L4475 12500
" />
<path d="M4475 10500
L7475 10500
" />
<path d="M7475 10500
L7475 12500
" />
<path d="M4475 12500
L4475 10500
" />
</g>
<g style="fill:#00A0A0; fill-opacity:0.0; 
stroke:#00A0A0; stroke-width:39; stroke-opacity:1; 
stroke-linecap:round; stroke-linejoin:round;">
<circle cx="6525" cy="5650" r="50" /> 
<path d="M6525 5200
L6525 5600
" />
<path d="M6525 5600
L5925 5600
" />
<path d="M5925 5600
L5925 5200
" />
<path d="M5925 4800
L5925 4400
" />
<path d="M5925 4400
L6525 4400
" />
<path d="M6525 4400
L6525 4800
" />
<circle cx="4325" cy="6550" r="50" /> 
<path d="M4775 6550
L4375 6550
" />
<path d="M4375 6550
L4375 5950
" />
<path d="M4375 5950
L4775 5950
" />
<path d="M5175 5950
L5575 5950
" />
<path d="M5575 5950
L5575 6550
" />
<path d="M5575 6550
L5175 6550
" />
<circle cx="3425" cy="4350" r="50" /> 
<path d="M3425 4800
L3425 4400
" />
<path d="M3425 4400
L4025 4400
" />
<path d="M4025 4400
L4025 4800
" />
<path d="M4025 5200
L4025 5600
" />
<path d="M4025 5600
L3425 5600
" />
<path d="M3425 5600
L3425 5200
" />
<circle cx="5625" cy="3450" r="50" /> 
<path d="M5175 3450
L5575 3450
" />
<path d="M5575 3450
L5575 4050
" />
<path d="M5575 4050
L5175 4050
" />
<path d="M4775 4050
L4375 4050
" />
<path d="M4375 4050
L4375 3450
" />
<path d="M4375 3450
L4775 3450
" />
</g>
<g style="fill:#808000; fill-opacity:0.0; 
stroke:#808000; stroke-width:39.3701; stroke-opacity:1; 
stroke-linecap:round; stroke-linejoin:round;">
</g>
<g style="fill:#808000; fill-opacity:1.0; 
stroke:#808000; stroke-width:39.3701; stroke-opacity:1; 
stroke-linecap:round; stroke-linejoin:round;">
<polyline style="fill-rule:evenodd;"
points="9230,12255
8719,12255
8719,11744
9230,11744
9230,12255
" /> 
<circle cx="8975" cy="11000" r="255.315" /> 
<polyline style="fill-rule:evenodd;"
points="7730,8794
7730,9305
7219,9305
7219,8794
7730,8794
" /> 
<circle cx="6475" cy="8950" r="255.315" /> 
<circle cx="5475" cy="9050" r="255.315" /> 
<circle cx="4475" cy="8950" r="255.315" /> 
<circle cx="3475" cy="9050" r="255.315" /> 
<circle cx="2475" cy="8950" r="255.315" /> 
<polyline style="fill-rule:evenodd;"
points="8680,19255
8169,19255
8169,18744
8680,18744
8680,19255
" /> 
<circle cx="8525" cy="18000" r="255.315" /> 
<circle cx="8425" cy="17000" r="255.315" /> 
<circle cx="8525" cy="16000" r="255.315" /> 
<circle cx="8425" cy="15000" r="255.315" /> 
<circle cx="8525" cy="14000" r="255.315" /> 
<polyline style="fill-rule:evenodd;"
points="1180,17755
669,17755
669,17244
1180,17244
1180,17755
" /> 
<circle cx="1025" cy="16500" r="255.315" /> 
<circle cx="925" cy="15500" r="255.315" /> 
<circle cx="1025" cy="14500" r="255.315" /> 
<circle cx="925" cy="13500" r="255.315" /> 
<circle cx="1025" cy="12500" r="255.315" /> 
<polyline style="fill-rule:evenodd;"
points="719,11205
719,10694
1230,10694
1230,11205
719,11205
" /> 
<circle cx="1975" cy="11050" r="255.315" /> 
<circle cx="2975" cy="10950" r="255.315" /> 
<polyline style="fill-rule:evenodd;"
points="2194,19330
2194,18769
2755,18769
2755,19330
2194,19330
" /> 
<circle cx="2475" cy="18050" r="280.315" /> 
<circle cx="3475" cy="18950" r="280.315" /> 
<circle cx="3475" cy="17950" r="280.315" /> 
<circle cx="4475" cy="19050" r="280.315" /> 
<circle cx="4475" cy="18050" r="280.315" /> 
<circle cx="5475" cy="18950" r="280.315" /> 
<circle cx="5475" cy="17950" r="280.315" /> 
<circle cx="6475" cy="19050" r="280.315" /> 
<circle cx="6475" cy="18050" r="280.315" /> 
<polyline style="fill-rule:evenodd;"
points="4694,12330
4694,11769
5255,11769
5255,12330
4694,12330
" /> 
<circle cx="4975" cy="11050" r="280.315" /> 
<circle cx="5975" cy="11950" r="280.315" /> 
<circle cx="5975" cy="10950" r="280.315" /> 
<circle cx="6975" cy="12050" r="280.315" /> 
<circle cx="6975" cy="11050" r="280.315" /> 
</g> 
</svg>
